<svg width="20" height="20" viewBox="0 0 20 20" fill="none" xmlns="http://www.w3.org/2000/svg">
<path d="M17.7452 0.393544C18.2608 -0.131335 19.0975 -0.131028 19.6134 0.393544C20.1292 0.918781 20.1292 1.77163 19.6134 2.29686L11.7745 10.2783L19.0665 17.7031C19.5823 18.2284 19.5823 19.0812 19.0665 19.6064C18.5507 20.1311 17.714 20.1313 17.1983 19.6064L9.90536 12.1807L2.80184 19.415C2.28602 19.94 1.44945 19.9401 0.933676 19.415C0.417937 18.8898 0.418005 18.0379 0.933676 17.5127L8.03817 10.2783L0.386801 2.48729C-0.128883 1.96205 -0.128984 1.11014 0.386801 0.584951C0.902579 0.0600101 1.73918 0.0600145 2.25496 0.584951L9.90536 8.37499L17.7452 0.393544Z" fill="currentColor"/>
</svg>
