<svg width="100" height="100" viewBox="0 0 100 100" fill="none" xmlns="http://www.w3.org/2000/svg">
<path fill-rule="evenodd" clip-rule="evenodd" d="M65.6339 86.0964C65.9975 86.3719 66.3502 86.6217 66.6817 86.8495C67.0828 87.1145 67.4683 87.3636 67.8479 87.5808L67.6013 87.9673C67.3128 87.7979 67.1471 87.7131 67.0828 87.713C67.0241 87.7077 66.9762 87.7397 66.9334 87.8084C66.896 87.8666 66.8204 88.0998 66.7028 88.5078L66.4411 89.4507C66.7244 89.6468 67.0398 89.8642 67.3927 90.1025C67.7028 90.3092 67.9867 90.4947 68.238 90.6589L68.7193 90.2297C68.853 90.1131 69.0407 89.9331 69.2758 89.6842C69.3345 89.6313 69.3772 89.5782 69.4092 89.5253C69.4518 89.4513 69.4628 89.3877 69.4363 89.3295C69.4096 89.2713 69.2649 89.128 69.0031 88.9162L69.2438 88.5237C69.4576 88.6985 69.7353 88.9001 70.072 89.1278C70.3929 89.3398 70.6553 89.5041 70.8532 89.6048L70.5965 90.029C70.3665 89.8965 70.2164 89.8376 70.1362 89.8482C70.0827 89.8536 69.9546 89.9334 69.7572 90.0866C69.3668 90.3887 68.8366 90.8286 68.1788 91.3902L64.4566 94.5697L63.9432 94.2259L65.4734 88.2167C65.6713 87.4324 65.7615 86.9976 65.7562 86.9022C65.7454 86.8122 65.6228 86.6691 65.3932 86.4839L65.6339 86.0964ZM65.5316 92.975L67.7406 91.0941C67.5375 90.9352 67.3074 90.7708 67.0507 90.6013C66.7833 90.4211 66.521 90.2569 66.2696 90.1085L65.5316 92.975Z" fill="#50000F"/>
<path d="M75.3776 79.7593C74.4524 79.8494 73.6127 80.4108 73.0031 81.1156C73.7036 80.8666 74.3779 81.0252 74.9554 81.4862C76.0729 82.3816 75.8909 84.0667 74.9233 84.8882C73.934 85.7361 70.7409 85.2386 69.1686 86.3726C69.5269 84.4173 67.7727 81.5922 68.1096 80.3098C68.4414 79.0541 69.8479 78.1958 71.0938 78.89C71.7249 79.245 72.1477 79.8173 72.2279 80.5751C72.5595 79.7538 72.7306 78.7574 72.4365 77.7771L75.3776 79.7593Z" fill="#50000F"/>
<path d="M69.1254 53.8626C68.4358 57.662 71.8315 63.1357 71.1791 65.6316C70.532 68.0691 67.8104 69.7326 65.3932 68.3868C64.1579 67.6979 63.3446 66.5856 63.1841 65.1179C62.5371 66.7182 62.2108 68.6416 62.783 70.5439L57.0714 66.6967C58.8736 66.5271 60.4998 65.4351 61.687 64.0627C60.3286 64.5449 59.0124 64.2429 57.8946 63.3473C55.7237 61.6092 56.0717 58.3396 57.9488 56.734C59.8745 55.0972 66.0719 56.0719 69.1254 53.8626Z" fill="#50000F"/>
<path d="M60.3233 36.6398C59.965 38.5952 61.7131 41.4203 61.3762 42.7027C61.0445 43.9583 59.6439 44.8163 58.398 44.1225C57.7616 43.7727 57.3391 43.1951 57.2589 42.4374C56.9273 43.264 56.7562 44.255 57.0503 45.2353L54.1082 43.2531C55.0388 43.163 55.8731 42.6016 56.4828 41.8969C55.7876 42.1458 55.1139 41.9871 54.5364 41.5263C53.4187 40.6307 53.5955 38.9509 54.5635 38.1242C55.553 37.2765 58.7457 37.7791 60.3233 36.6398Z" fill="#50000F"/>
<path fill-rule="evenodd" clip-rule="evenodd" d="M65.5426 28.7865L64.0134 34.8017C63.821 35.5804 63.7243 36.0147 63.7296 36.1102C63.7403 36.2056 63.8637 36.3431 64.0936 36.5285L63.853 36.916C63.4893 36.6458 63.141 36.3914 62.8041 36.1689C62.403 35.8986 62.0183 35.6542 61.6439 35.4316L61.8846 35.0451C62.173 35.2145 62.3387 35.2993 62.403 35.2995C62.4618 35.3048 62.5106 35.2726 62.5534 35.2091C62.5909 35.1447 62.6657 34.9112 62.783 34.5096L63.0448 33.5617C62.7667 33.3657 62.446 33.1483 62.0931 32.9099C61.783 32.7032 61.4992 32.5174 61.2478 32.3585L60.7665 32.7827C60.6329 32.8993 60.4514 33.0794 60.211 33.3282C60.1575 33.3865 60.114 33.4395 60.0766 33.4872C60.0339 33.5613 60.0239 33.6247 60.0505 33.6829C60.0773 33.7465 60.227 33.8849 60.4837 34.1022L60.2431 34.4937C60.0291 34.3188 59.7557 34.1174 59.4188 33.8896C59.0981 33.6724 58.8358 33.5136 58.6327 33.4077L58.8954 32.9894C59.1197 33.1164 59.2695 33.1748 59.3496 33.1643C59.4032 33.1641 59.5316 33.079 59.7347 32.9308C60.125 32.6235 60.649 32.1891 61.312 31.6222L65.0292 28.4427L65.5426 28.7865ZM61.7512 31.9183C61.949 32.0772 62.1785 32.2416 62.4351 32.4111C62.7077 32.5965 62.9646 32.7556 63.2212 32.9039L63.9542 30.0374L61.7512 31.9183Z" fill="#50000F"/>
<path d="M16.5653 32.7827L15.3409 38.2355L10.2389 36.5981L11.4633 31.1453L16.5653 32.7827Z" fill="#50000F"/>
<path fill-rule="evenodd" clip-rule="evenodd" d="M11.9767 27.2604C12.5489 27.7903 12.8755 28.0771 12.9664 28.1089C13.0468 28.1457 13.2232 28.0921 13.4848 27.9599L13.7094 28.3633C13.303 28.5752 12.9282 28.7866 12.5753 28.9932C12.1582 29.2475 11.7737 29.4973 11.4101 29.7463L11.1905 29.3429C11.4681 29.1631 11.6234 29.0364 11.6558 28.9833C11.6825 28.9303 11.6772 28.8713 11.6398 28.8024C11.6073 28.7386 11.4417 28.5638 11.1534 28.2728L10.4736 27.6101C10.1688 27.7797 9.83773 27.9818 9.4688 28.2043C9.15342 28.395 8.85904 28.5746 8.60243 28.7388L8.74682 29.3807C8.77893 29.5502 8.84791 29.8044 8.94938 30.1378C8.96542 30.212 8.99283 30.2762 9.01957 30.3345C9.06232 30.4032 9.11595 30.4398 9.18001 30.4398C9.23912 30.4449 9.426 30.371 9.73553 30.2282L9.95012 30.6256C9.70415 30.7475 9.40424 30.9115 9.05667 31.1234C8.71975 31.3248 8.46271 31.5003 8.27553 31.6381L8.04089 31.2089C8.26012 31.0552 8.38316 30.9383 8.4099 30.8641C8.4259 30.811 8.41489 30.6573 8.38282 30.4031C8.30261 29.905 8.17993 29.2161 8.0088 28.3523L7.04014 23.4768L7.56959 23.1539L11.9767 27.2604ZM8.46304 28.0771C8.69298 27.9605 8.93872 27.8221 9.20608 27.6578C9.48937 27.4936 9.74635 27.3245 9.99224 27.1551L7.89649 25.1888L8.46304 28.0771Z" fill="#50000F"/>
<path d="M28.3045 28.7339C28.8125 27.531 29.5827 26.2589 31.1122 26.7994C32.2191 27.1914 32.6947 28.4422 32.5932 29.5814C32.4649 30.975 31.299 31.7541 30.4754 32.745C30.0049 33.3172 29.604 33.9322 29.2832 34.7957C28.711 34.0964 28.1439 33.6673 27.5183 33.2964C26.438 32.6605 25.0953 32.3528 24.5391 31.0916C24.0848 30.0531 24.1385 28.7023 25.0636 27.934C26.3311 26.8689 27.4595 27.7853 28.3045 28.7339Z" fill="#50000F"/>
<path fill-rule="evenodd" clip-rule="evenodd" d="M29.5719 23.0535C29.9355 23.7582 30.1495 24.1448 30.2137 24.2031C30.2832 24.2667 30.4651 24.2826 30.7592 24.2508L30.8284 24.7069C30.3792 24.7652 29.9566 24.8337 29.5609 24.9026C29.0957 24.9927 28.6464 25.0878 28.2293 25.1937L28.1551 24.7387C28.4756 24.6645 28.6574 24.6009 28.7056 24.5638C28.7484 24.5214 28.7647 24.4625 28.7487 24.383C28.7377 24.3137 28.6464 24.0909 28.4649 23.7153L28.0478 22.8469C27.711 22.8999 27.3313 22.9685 26.9197 23.0426C26.5561 23.1115 26.224 23.1801 25.93 23.2384L25.8497 23.8961C25.8284 24.071 25.8073 24.3358 25.7966 24.68C25.7859 24.7594 25.791 24.8334 25.8016 24.8917C25.8123 24.9712 25.8501 25.0295 25.9089 25.0507C25.968 25.077 26.166 25.0771 26.5025 25.0507L26.5717 25.5067C26.2991 25.5279 25.9675 25.5809 25.572 25.6498C25.1925 25.7239 24.8927 25.7929 24.6735 25.8564L24.5933 25.3686C24.8496 25.2998 24.9991 25.2364 25.0525 25.1729C25.0846 25.1305 25.1278 24.9818 25.1759 24.7327C25.2668 24.2346 25.3788 23.5405 25.5018 22.6611L26.1917 17.717L26.7913 17.6008L29.5719 23.0535ZM26.0152 22.5657C26.2665 22.5392 26.545 22.4965 26.8445 22.4435C27.1652 22.3799 27.4646 22.3169 27.7479 22.2428L26.4323 19.6406L26.0152 22.5657Z" fill="#50000F"/>
<path d="M45.1186 30.2868C46.771 30.2446 48.3111 31.6009 47.0118 33.2964C46.8513 33.5137 46.6535 33.7207 46.4502 33.9273C46.7068 33.7155 46.9631 33.5617 47.1983 33.4663C48.3695 33 49.2258 33.8157 49.2419 35.1246C49.2579 36.8521 47.9419 38.4738 46.3269 37.1386C46.1718 37.0114 45.5037 36.2904 45.1025 35.8559L44.9902 36.4073L45.0063 36.5077C44.9956 37.2442 45.156 38.0444 45.6641 38.7015L42.7381 38.0815C43.4493 37.7106 43.9574 36.9949 44.2301 36.2424L44.3374 35.7496C43.7708 35.9826 42.9263 36.3223 42.7441 36.3755C40.7387 36.9372 40.1715 34.9129 40.8719 33.3391C41.4014 32.1468 42.5081 31.7494 43.3959 32.6555C43.5777 32.841 43.7492 33.0795 43.9043 33.3868C43.808 33.0902 43.6208 32.6768 43.5032 32.433C42.9416 31.2778 43.8618 30.3133 45.1186 30.2868Z" fill="#50000F"/>
<path fill-rule="evenodd" clip-rule="evenodd" d="M48.1609 20.0172L48.8027 26.1744C48.8828 26.9737 48.9474 27.4133 48.9902 27.4988C49.0276 27.5836 49.1935 27.6684 49.4715 27.7532L49.3803 28.2043C48.9418 28.0877 48.5302 27.9817 48.1399 27.9022C47.6746 27.8016 47.225 27.7214 46.7972 27.6578L46.8935 27.2028C47.2194 27.2557 47.407 27.2716 47.466 27.2504C47.5195 27.2292 47.5573 27.1809 47.5733 27.1014C47.5839 27.032 47.5783 26.788 47.5462 26.3701L47.471 25.3954C47.1342 25.316 46.7596 25.2311 46.348 25.1411C45.9898 25.0669 45.6633 24.9983 45.3693 24.9453L45.0644 25.5276C44.9789 25.6812 44.8666 25.92 44.7275 26.238C44.7008 26.3068 44.674 26.3761 44.6633 26.4397C44.6474 26.519 44.6584 26.5828 44.7065 26.6304C44.7548 26.6729 44.9367 26.7471 45.2519 26.853L45.1607 27.3081C44.8987 27.2233 44.5725 27.1438 44.177 27.0537C43.808 26.9742 43.5031 26.9269 43.2785 26.9057L43.3798 26.4129C43.6365 26.4499 43.7976 26.4499 43.8672 26.4129C43.9154 26.3861 44.0114 26.2641 44.1449 26.0472C44.4016 25.6127 44.7489 25.0136 45.1767 24.2399L47.5673 19.89L48.1609 20.0172ZM45.6851 24.3512C45.9311 24.4201 46.2039 24.4893 46.5034 24.5529C46.8134 24.6217 47.1129 24.6744 47.4069 24.7168L47.108 21.7758L45.6851 24.3512Z" fill="#50000F"/>
<path fill-rule="evenodd" clip-rule="evenodd" d="M36.139 0.829078C38.9627 -0.871937 42.5779 0.129595 44.177 3.0547L47.5513 9.22784L60.8467 6.74289C64.0394 6.14411 67.098 8.38517 67.6384 11.7128L68.9058 19.5879L83.5701 22.7137C86.7413 23.392 88.7788 26.6564 88.0945 29.9788L86.5222 37.6046L97.3418 44.8806C100.053 46.7035 100.818 50.5289 99.0425 53.3797L71.7456 97.1669C69.97 100.018 66.2965 100.86 63.5852 99.0368L31.7108 77.6023C31.5183 77.4698 31.3308 77.3264 31.1543 77.178C28.8654 77.4905 26.5125 76.3777 25.3093 74.1734L0.761922 29.2475C-0.836912 26.3225 0.16337 22.5339 2.98702 20.8329L36.139 0.829078ZM64.7133 24.6641C62.633 23.2652 59.8196 23.9064 58.4612 26.0949L31.1703 69.8762C29.8121 72.0594 30.3956 74.9902 32.4759 76.3891L64.3393 97.8237C66.4196 99.2171 69.2327 98.571 70.5965 96.3879L97.8813 52.6067C99.245 50.4182 98.6568 47.4874 96.5817 46.0938L64.7133 24.6641ZM42.9737 3.78002C41.7543 1.53871 38.9837 0.770179 36.8178 2.07901L3.66589 22.0779C1.50529 23.3814 0.74053 26.2807 1.96522 28.5222L26.5126 73.4421C26.8976 74.1575 27.4428 74.7199 28.0738 75.1173C27.3625 74.2907 26.8605 73.2514 26.668 72.075L18.4264 20.9233C17.8862 17.5903 20.0681 14.3734 23.2606 13.7745L46.1023 9.50306L42.9737 3.78002ZM66.2746 11.9671C65.8626 9.41851 63.5206 7.70671 61.0713 8.16768L23.4913 15.1943C21.042 15.65 19.3788 18.1142 19.7851 20.663L28.0317 71.8206C28.1815 72.7585 28.5929 73.5806 29.1759 74.2271C28.6999 73.0931 28.5505 71.7947 28.8179 70.4912L39.3107 19.572C39.9952 16.2495 43.1505 14.0868 46.3219 14.7651L67.4518 19.275L66.2746 11.9671ZM46.0271 16.1799C43.6046 15.6609 41.1874 17.3148 40.6634 19.8582L30.7592 67.9049L57.306 25.3159C59.0815 22.4652 62.761 21.6225 65.4724 23.445L85.2817 36.773L86.7418 29.6877C87.2659 27.1494 85.7093 24.6479 83.2813 24.1286L46.0271 16.1799Z" fill="#50000F"/>
</svg>