<svg width="100" height="110" viewBox="0 0 100 110" fill="none" xmlns="http://www.w3.org/2000/svg">
<path d="M100 0L90.6235 99.3048L49.9993 110L9.37449 99.3048L0 0H100ZM81.1059 20.1921H49.9628H18.2679L19.7837 32.1841H49.9628H51.658L49.9628 32.874L20.8867 44.7149L21.851 56.4367L49.9628 56.5258L65.0299 56.5725L64.0654 72.202L49.9626 76.0844V76.0721L49.847 76.1035L36.2272 72.7417L35.4008 63.0397H35.3556H22.7226H22.6781L24.3317 81.7693L49.963 89.1806V89.1673L50.0092 89.1806L75.5032 81.9043L78.8101 44.7149H49.963H49.8919L49.963 44.6847L79.8669 32.1841L81.1059 20.1921Z" fill="#50000F"/>
</svg>
