<svg width="100" height="100" viewBox="0 0 100 100" fill="none" xmlns="http://www.w3.org/2000/svg">
<path d="M93.4804 57.0169C97.143 57.3897 100 60.4853 100 64.2463V64.504C100 70.9011 100.01 76.4248 99.4168 80.8436C98.7872 85.5271 97.3635 90.0404 93.7019 93.702C90.04 97.3638 85.5271 98.7872 80.8437 99.4168C76.4249 100.01 70.901 100 64.504 100H35.496C29.0989 100 23.5751 100.01 19.1564 99.4168C14.473 98.7872 9.95977 97.364 6.29806 93.702C2.63634 90.0404 1.21294 85.527 0.583258 80.8436C-0.0107043 76.4247 -7.09769e-05 70.9009 2.25716e-05 64.504V64.2463C2.25716e-05 60.234 3.25318 56.9807 7.2656 56.9807L8.00707 57.0169C11.6707 57.3889 14.5312 60.4848 14.5312 64.2463C14.5312 71.1684 14.5465 75.6264 14.9878 78.9086C15.4006 81.9786 16.062 82.9124 16.5748 83.4253C17.087 83.9376 18.0207 84.599 21.0914 85.0122C24.3735 85.4532 28.8317 85.4688 35.7537 85.4688H64.2463C71.1683 85.4688 75.6262 85.4532 78.9086 85.0122L79.962 84.8494C82.2063 84.4389 82.9766 83.8739 83.4253 83.4253C83.9379 82.9126 84.5991 81.9793 85.0122 78.9086C85.4532 75.6262 85.4688 71.1682 85.4688 64.2463C85.4688 60.2345 88.7227 56.9815 92.7344 56.9807L93.4804 57.0169ZM50.7415 0.0361696C54.4055 0.407563 57.2656 3.50346 57.2656 7.26557V50.2758L63.6314 43.3177L64.1604 42.7932C66.9067 40.3409 71.1186 40.3198 73.8946 42.8565C76.8557 45.5638 77.0617 50.1586 74.3557 53.1196L55.3621 73.8946C53.9859 75.3997 52.04 76.2592 50 76.2592C47.9601 76.2591 46.0141 75.3996 44.6379 73.8946L25.6443 53.1196C22.938 50.1583 23.1446 45.5636 26.1054 42.8565L26.6796 42.3863C29.4371 40.3358 33.276 40.5041 35.8396 42.7932L36.3686 43.3177L42.7344 50.2758V7.26557C42.7344 3.25318 45.9877 3.15738e-05 50 0L50.7415 0.0361696Z" fill="#50000F"/>
</svg>
