<svg width="100" height="150" viewBox="0 0 100 150" fill="none" xmlns="http://www.w3.org/2000/svg">
<path fill-rule="evenodd" clip-rule="evenodd" d="M12.083 51.5963C4.79322 46.5338 0 37.9406 0 28.1934C0 13.3181 11.1636 1.13344 25.3171 0.0749999V0H73.7699V0.0215632C88.3531 0.612188 100 12.9994 100 28.1934C100 37.9406 95.2059 46.5328 87.9179 51.5963C95.2059 56.6588 100 65.2519 100 75C100 90.5709 87.768 103.193 72.6797 103.193C66.0249 103.203 59.5971 100.697 54.6115 96.1481V104.094C54.6315 104.372 54.6415 104.652 54.6415 104.935V131.364C54.6415 141.654 46.555 150 36.5824 150H27.3212C12.232 150 0 137.378 0 121.807C0 112.059 4.79413 103.467 12.083 98.4037C4.79322 93.3403 0 84.7481 0 75C0 65.2528 4.79413 56.6597 12.083 51.5963ZM10.971 28.1934C10.971 18.8747 18.2908 11.3213 27.3212 11.3213H43.6714V45.0656H27.3212C18.2908 45.0656 10.971 37.5113 10.971 28.1934ZM72.6797 45.0656H56.3295V11.3213H72.6797C81.7092 11.3213 89.0299 18.8747 89.0299 28.1934C89.0299 37.5113 81.7092 45.0656 72.6797 45.0656ZM27.3212 91.8722C18.2908 91.8722 10.971 84.3178 10.971 75C10.971 65.6822 18.2908 58.1278 27.3212 58.1278H43.6714V91.8722H27.3212ZM27.3212 138.68C18.2908 138.68 10.971 131.124 10.971 121.807C10.971 112.489 18.2908 104.935 27.3212 104.935H43.6714V131.364C43.6709 133.304 42.9239 135.165 41.5946 136.537C40.2652 137.908 38.4624 138.679 36.5824 138.68H27.3212ZM72.6797 91.8722C81.7092 91.8722 89.0299 84.3178 89.0299 75C89.0299 65.6812 81.7092 58.1278 72.6797 58.1278C63.6492 58.1278 56.3295 65.6822 56.3295 75C56.3295 84.3178 63.6492 91.8722 72.6797 91.8722Z" fill="#50000F"/>
</svg>
