<svg width="100" height="100" viewBox="0 0 100 100" fill="none" xmlns="http://www.w3.org/2000/svg">
<path d="M50 0C77.615 0 100 22.9496 100 51.2646C100 73.9096 85.69 93.1197 65.835 99.9047C63.3 100.41 62.4 98.8087 62.4 97.4437C62.4 95.7537 62.46 90.2339 62.46 83.3739C62.46 78.594 60.8601 75.4742 59.0651 73.8842C70.2001 72.6142 81.9 68.2788 81.9 48.5888C81.9 42.9888 79.96 38.4191 76.75 34.8291C77.27 33.5341 78.985 28.3197 76.26 21.2597C76.26 21.2597 72.07 19.8861 62.525 26.5161C58.53 25.3811 54.25 24.81 50 24.79C45.75 24.81 41.475 25.3811 37.485 26.5161C27.93 19.8861 23.73 21.2597 23.73 21.2597C21.015 28.3197 22.73 33.5341 23.245 34.8291C20.05 38.4191 18.095 42.9888 18.095 48.5888C18.095 68.2288 29.77 72.6307 40.875 73.9257C39.445 75.2057 38.15 77.4637 37.7 80.7787C34.8499 82.0887 27.61 84.3558 23.15 76.5209C23.15 76.5209 20.505 71.5953 15.485 71.2353C15.475 71.2351 10.6147 71.1738 15.145 74.3505C15.154 74.3548 18.4231 75.9337 20.6949 81.8505C20.6949 81.8505 23.63 91.0003 37.54 87.9003C37.565 92.1853 37.61 96.2237 37.61 97.4437C37.61 98.7987 36.6899 100.385 34.1949 99.9096C14.325 93.1346 0 73.9146 0 51.2646C0 22.9496 22.39 0 50 0Z" fill="#50000F"/>
</svg>