<svg width="100" height="100" viewBox="0 0 100 100" fill="none" xmlns="http://www.w3.org/2000/svg">
<path fill-rule="evenodd" clip-rule="evenodd" d="M0.0994928 0C-0.0120531 0.0162427 -0.0038339 0.150685 0.00418957 0.285323C0.00418957 33.4884 0.00418957 66.6865 0.00418957 99.8888C33.1478 100.111 66.6985 99.9205 100 99.9839C100 66.6554 100 33.3284 100 0C66.701 0 33.3987 0 0.0994928 0ZM50.7619 88.3888C48.4484 90.7213 44.7975 92.0949 40.3061 92.0949C32.9396 92.0949 28.8496 88.5059 26.2388 83.5409C28.7519 81.9362 31.3202 80.3859 33.9382 78.8843C35.0059 81.871 38.6126 85.2287 42.6824 83.1616C45.2623 81.8507 44.9644 77.8759 44.9644 73.562C44.9644 64.6045 44.9644 54.2708 44.9644 46.1898C44.9562 46.0552 44.9482 45.9207 45.0588 45.9045C48.1325 45.9045 51.2061 45.9045 54.2791 45.9045C54.2791 53.1037 54.2791 61.2473 54.2791 68.9043C54.2791 77.2405 54.8748 84.2442 50.7619 88.3888ZM92.0149 80.1207C91.4916 87.9258 85.118 92.0704 76.5217 92.0949C68.0947 92.1192 62.701 88.3741 59.4116 82.5906C61.7765 80.963 64.4562 79.6518 66.9214 78.1244C68.894 81.2088 72.3102 84.1734 77.3771 83.7315C80.5339 83.4563 84.1983 80.8831 82.1296 76.9835C81.1262 75.0931 78.7018 74.1329 76.5217 73.1822C69.6035 70.1638 61.4869 67.3953 62.2632 56.5497C62.5229 52.9266 64.1912 50.3804 66.3511 48.5661C68.5646 46.707 71.5292 45.461 75.4761 45.335C82.6442 45.1055 86.5765 48.2939 89.2587 52.7487C86.9761 54.4886 84.4615 55.9988 81.9395 57.5004C81.112 54.9573 77.1168 52.4792 73.765 53.9839C72.2407 54.6675 70.8711 56.6769 71.6742 59.1158C72.3904 61.291 75.312 62.4816 77.6622 63.4884C84.7761 66.5334 92.7262 69.5094 92.0149 80.1207Z" fill="#50000F"/>
</svg>
