<svg width="100" height="100" viewBox="0 0 100 100" fill="none" xmlns="http://www.w3.org/2000/svg">
<path d="M99.392 49.266L96.6993 48.7601C96.3823 36.639 91.4226 25.6536 83.5378 17.5172L87.0101 14.045C87.301 13.754 87.301 13.2806 87.0101 12.9897C86.7191 12.6987 86.2479 12.6987 85.9547 12.9897L82.4846 16.4618C74.3458 8.57943 63.3624 3.61982 51.2388 3.30279L50.7329 0.608008C50.7329 0.605836 50.7329 0.603665 50.7329 0.603665C50.7285 0.586294 50.722 0.568922 50.7177 0.55155C50.7112 0.523322 50.7025 0.495092 50.6916 0.469035C50.6851 0.451663 50.6764 0.434292 50.6677 0.419091C50.6547 0.393034 50.6439 0.369148 50.6287 0.345262C50.6178 0.330062 50.6069 0.314862 50.5961 0.301833C50.5809 0.277947 50.5635 0.258403 50.544 0.23886C50.5309 0.22366 50.5179 0.212803 50.5049 0.199774C50.4853 0.180231 50.4636 0.165031 50.4419 0.147659C50.4267 0.136802 50.4115 0.125944 50.3963 0.115087C50.3724 0.102058 50.3485 0.0890302 50.3246 0.0781725C50.3094 0.0694872 50.2921 0.0608004 50.2747 0.0542865C50.2465 0.0434288 50.2182 0.0347439 50.1878 0.0260575C50.1726 0.0217149 50.1574 0.0173721 50.1422 0.0152002C50.0966 0.00434306 50.0489 0 50.0011 0C49.9533 0 49.9055 0.00434306 49.8599 0.0152002C49.8426 0.0173721 49.8274 0.0217149 49.8122 0.0260575C49.7839 0.0347439 49.7557 0.0434288 49.7275 0.0542865C49.7101 0.0608004 49.6927 0.0694872 49.6754 0.0781725C49.6515 0.0890302 49.6276 0.102058 49.6059 0.115087C49.5885 0.125944 49.5733 0.136802 49.5581 0.147659C49.5364 0.16286 49.5168 0.180231 49.4973 0.199774C49.4821 0.210632 49.4691 0.22366 49.456 0.23886C49.4387 0.258403 49.4213 0.280118 49.4039 0.301833C49.3931 0.317033 49.3822 0.330062 49.3735 0.345262C49.3583 0.369148 49.3453 0.395205 49.3323 0.419091C49.3257 0.436463 49.3171 0.451663 49.3105 0.469035C49.2975 0.497264 49.2888 0.525493 49.2823 0.555893C49.278 0.571093 49.2715 0.586294 49.2693 0.601494C49.2693 0.603665 49.2671 0.605836 49.2671 0.608008L48.7612 3.30062C36.6398 3.61982 25.6542 8.57726 17.5175 16.4618L14.0453 12.9897C13.7543 12.6987 13.2809 12.6987 12.9899 12.9897C12.699 13.2806 12.699 13.754 12.9899 14.045L16.4622 17.5172C8.57962 25.6536 3.6199 36.639 3.30286 48.7601L0.608022 49.266C0.256237 49.3334 0 49.6395 0 50C0 50.3583 0.256237 50.6666 0.608022 50.7318L3.30286 51.2377C3.6199 63.361 8.57962 74.3464 16.4622 82.4828L12.9899 85.955C12.699 86.246 12.699 86.7194 12.9899 87.0103C13.1354 87.1558 13.3265 87.2275 13.5176 87.2275C13.7087 87.2275 13.8998 87.1558 14.0453 87.0103L17.5175 83.5382C25.6542 91.4206 36.6398 96.3802 48.7612 96.6972L49.2671 99.392C49.2671 99.3942 49.2693 99.3963 49.2693 99.3985C49.2715 99.4137 49.278 99.4289 49.2823 99.4441C49.2888 99.4723 49.2975 99.5027 49.3084 99.531C49.3149 99.5483 49.3236 99.5635 49.3323 99.5787C49.3453 99.6048 49.3583 99.6309 49.3735 99.6547C49.3822 99.6699 49.3931 99.683 49.4039 99.6982C49.4213 99.7199 49.4387 99.7416 49.456 99.7611C49.4691 99.7742 49.4821 99.7872 49.4951 99.8002C49.5147 99.8176 49.5364 99.835 49.5581 99.8523C49.5733 99.8632 49.5885 99.8741 49.6037 99.8849C49.6276 99.8979 49.6515 99.911 49.6754 99.9218C49.6927 99.9305 49.7079 99.9392 49.7253 99.9457C49.7535 99.9566 49.7818 99.9653 49.8122 99.9718C49.8274 99.9761 49.8426 99.9826 49.8578 99.9848C49.9055 99.9935 49.9511 100 50.0011 100C50.0489 100 50.0945 99.9935 50.1401 99.9848C50.1574 99.9826 50.1726 99.9761 50.1878 99.9718C50.2161 99.9653 50.2465 99.9566 50.2725 99.9457C50.2899 99.9392 50.3073 99.9305 50.3246 99.9218C50.3485 99.911 50.3724 99.8979 50.3963 99.8849C50.4115 99.8741 50.4267 99.8632 50.4419 99.8523C50.4636 99.835 50.4853 99.8176 50.5049 99.8002C50.5179 99.7872 50.5309 99.7742 50.544 99.7611C50.5613 99.7416 50.5787 99.7199 50.5961 99.6982C50.6069 99.683 50.6178 99.6699 50.6287 99.6547C50.6417 99.6309 50.6547 99.607 50.6677 99.5809C50.6743 99.5635 50.6851 99.5483 50.6916 99.531C50.7025 99.5049 50.709 99.4745 50.7177 99.4463C50.722 99.4311 50.7285 99.4137 50.7307 99.3963C50.7307 99.3942 50.7329 99.3942 50.7329 99.392L51.2388 96.6972C63.3602 96.3802 74.3458 91.4206 82.4825 83.5382L85.9547 87.0103C86.1002 87.1558 86.2913 87.2275 86.4824 87.2275C86.6735 87.2275 86.8646 87.1558 87.0101 87.0103C87.301 86.7194 87.301 86.246 87.0101 85.955L83.5378 82.4828C91.4226 74.3464 96.3801 63.361 96.6993 51.2399L99.392 50.734C99.7459 50.6666 100 50.3583 100 50C100 49.6417 99.7459 49.3334 99.392 49.266ZM52.4071 90.4825L57.4298 63.7236L74.0614 75.0977C74.1895 75.1867 74.3371 75.228 74.4826 75.228C74.6759 75.228 74.867 75.1542 75.0103 75.0087C75.2644 74.7546 75.3013 74.3573 75.0993 74.0619L63.725 57.4286L90.4845 52.406C89.2814 72.8568 72.8584 89.2817 52.4071 90.4825ZM9.51554 52.406L36.275 57.4286L24.9007 74.0619C24.6987 74.3573 24.7356 74.7568 24.9897 75.0087C25.2438 75.2627 25.6411 75.2997 25.9386 75.0977L42.5702 63.7236L47.5951 90.4825C27.1438 89.2817 10.7186 72.8568 9.51554 52.406ZM47.5951 9.5175L42.5702 36.2764L25.9386 24.9023C25.6433 24.7003 25.2438 24.7373 24.9897 24.9913C24.7356 25.2454 24.6987 25.6428 24.9028 25.9381L36.2772 42.5693L9.51554 47.594C10.7186 27.1432 27.1438 10.7205 47.5951 9.5175ZM90.4845 47.594L63.725 42.5714L75.0993 25.9381C75.3013 25.6428 75.2644 25.2454 75.0103 24.9913C74.7562 24.7373 74.3589 24.7003 74.0635 24.9023L57.4298 36.2764L52.4071 9.5175C72.8584 10.7205 89.2814 27.1432 90.4845 47.594ZM90.5474 49.253H51.8013L58.0357 43.0209L90.5453 49.1227C90.5474 49.1683 90.5474 49.2118 90.5474 49.253ZM58.4244 41.5747L57.7316 37.8767L71.6249 28.3766L62.1224 42.2696L58.4244 41.5747ZM56.9803 41.9656L50.7459 48.1999V9.45236C50.7893 9.45453 50.8328 9.45453 50.8762 9.45453L56.9803 41.9656ZM49.2541 9.45236V48.1999L43.0197 41.9656L49.1238 9.45453C49.1672 9.45453 49.2107 9.45453 49.2541 9.45236ZM37.8776 42.2696L28.3772 28.3766L42.2705 37.8767L41.5756 41.5747L37.8776 42.2696ZM41.9665 43.0209L48.1987 49.253H9.45256C9.45256 49.2118 9.45256 49.1683 9.45473 49.1249L41.9665 43.0209ZM9.45256 50.747H48.1987L41.9665 56.9791L9.45473 50.8751C9.45256 50.8338 9.45256 50.7882 9.45256 50.747ZM41.5756 58.4253L42.2705 62.1233L28.3751 71.6234L37.8776 57.7304L41.5756 58.4253ZM43.0197 58.0344L49.2541 51.8001V90.5455C49.2107 90.5455 49.1672 90.5455 49.1238 90.5455L43.0197 58.0344ZM50.7459 90.5455V51.8001L56.9738 58.0301C56.976 58.0322 56.9781 58.0322 56.9803 58.0344L50.8762 90.5455C50.8328 90.5455 50.7893 90.5455 50.7459 90.5455ZM62.1224 57.7304L71.6249 71.6234L57.7316 62.1233L58.4244 58.4253L62.1224 57.7304ZM58.0357 56.9791C58.0335 56.9791 58.0313 56.9747 58.0291 56.9747L51.8013 50.747H90.5474C90.5474 50.7882 90.5474 50.8338 90.5453 50.8751L58.0357 56.9791ZM95.1945 48.4778L91.9958 47.8785C91.4725 37.3925 87.0882 27.9076 80.2415 20.8156L82.4846 18.5725C90.0371 26.3745 94.8101 36.8801 95.1945 48.4778ZM81.4293 17.5172L79.1861 19.7603C72.094 12.9137 62.6088 8.52949 52.1226 8.00617L51.5211 4.80544C63.1213 5.19196 73.6271 9.96482 81.4293 17.5172ZM48.4789 4.80544L47.8774 8.00617C37.3933 8.52949 27.9082 12.9137 20.8139 19.7603L18.5707 17.5172C26.3751 9.96482 36.8808 5.19196 48.4789 4.80544ZM17.5154 18.5725L19.7607 20.8156C12.9118 27.9076 8.5275 37.3925 8.00417 47.8785L4.80554 48.4778C5.1899 36.8801 9.96504 26.3745 17.5154 18.5725ZM4.80554 51.5222L8.00417 52.1215C8.5275 62.6075 12.9118 72.0924 19.7607 79.1844L17.5154 81.4275C9.96504 73.6255 5.1899 63.12 4.80554 51.5222ZM18.5707 82.4828L20.8139 80.2397C27.9082 87.0863 37.3933 91.4705 47.8774 91.9938L48.4789 95.1946C36.8808 94.808 26.3751 90.0352 18.5707 82.4828ZM51.5211 95.1946L52.1226 91.9938C62.6088 91.4705 72.0918 87.0863 79.1861 80.2397L81.4293 82.4828C73.6271 90.0352 63.1213 94.808 51.5211 95.1946ZM82.4846 81.4275L80.2415 79.1844C87.0882 72.0924 91.4725 62.6075 91.9958 52.1215L95.1945 51.5222C94.8101 63.12 90.0371 73.6255 82.4846 81.4275Z" fill="#50000F"/>
</svg>