<svg width="100" height="54" viewBox="0 0 100 54" fill="none" xmlns="http://www.w3.org/2000/svg">
<path d="M78.3863 20.5716C79.1131 21.3982 79.2855 22.8177 78.9055 24.8284C78.5084 26.9227 77.744 28.4167 76.6114 29.3122C75.4777 30.2078 73.7538 30.6556 71.4387 30.6556H67.9458L70.09 19.3315H74.0241C76.2061 19.3315 77.6595 19.7451 78.3863 20.5716ZM29.2082 19.3315H25.2742L23.1297 30.6556H26.6225C28.937 30.6556 30.6614 30.2078 31.7951 29.3122C32.928 28.4167 33.6922 26.9225 34.0892 24.8284C34.4693 22.8175 34.2967 21.3982 33.5701 20.5716C32.8434 19.7451 31.39 19.3315 29.2082 19.3315ZM100 27C100 41.9117 77.6139 54 50 54C22.3861 54 0 41.9117 0 27C0 12.0885 22.3861 0 50 0C77.6139 0 100 12.0885 100 27ZM38.7558 28.8654C39.3507 27.771 39.774 26.5631 40.0245 25.242C40.6315 22.0344 40.1734 19.5362 38.6499 17.7463C37.1272 15.9564 34.7037 15.0618 31.3826 15.0618H20.3409L15.2182 42.1191H20.9603L22.3219 34.9262H27.2405C29.4102 34.9262 31.1955 34.6924 32.5971 34.2237C33.9984 33.7559 35.272 32.9716 36.4186 31.8695C37.3804 30.9615 38.1591 29.9607 38.7558 28.8654ZM58.9656 34.9262L61.3493 22.3342C61.8344 19.7734 61.4705 17.9204 60.2589 16.7768C59.0464 15.6341 56.8442 15.0618 53.6507 15.0618H48.5757L49.938 7.86799H44.2413L39.1176 34.926H44.8143L47.7489 19.4245H52.3022C53.7597 19.4245 54.7125 19.672 55.1601 20.1674C55.6076 20.663 55.7027 21.5919 55.4448 22.9535L53.1785 34.926H58.9656V34.9262ZM83.4659 17.7465C81.9434 15.9566 79.52 15.062 76.1988 15.062H65.1569L60.034 42.1193H65.7763L67.1378 34.9264H72.0566C74.226 34.9264 76.0115 34.6926 77.4129 34.2239C78.8143 33.7561 80.0879 32.9718 81.2344 31.8697C82.1973 30.9615 82.9753 29.9609 83.5716 28.8656C84.1673 27.7712 84.5896 26.5633 84.8403 25.2422C85.4476 22.0344 84.9894 19.5362 83.4659 17.7465Z" fill="#50000F"/>
</svg>
