<svg width="100" height="100" viewBox="0 0 100 100" fill="none" xmlns="http://www.w3.org/2000/svg">
<path d="M97.4828 24.2267H84.4393C83.0491 24.2267 81.9221 25.3531 81.9221 26.7425V73.3719C81.9221 74.7614 83.0491 75.8878 84.4393 75.8878H97.4828C98.873 75.8878 100 74.7614 100 73.3719V26.7425C100 25.3531 98.873 24.2267 97.4828 24.2267Z" fill="#50000F"/>
<path d="M71.2246 24.2267H58.181C56.7909 24.2267 55.6639 25.3531 55.6639 26.7425V73.3719C55.6639 74.7614 56.7909 75.8878 58.181 75.8878H71.2246C72.6147 75.8878 73.7417 74.7614 73.7417 73.3719V26.7425C73.7417 25.3531 72.6147 24.2267 71.2246 24.2267Z" fill="#50000F"/>
<path d="M5.66366 24.4839L44.1935 46.7265C46.7107 48.1846 46.7107 51.8154 44.1935 53.2449L5.66366 75.4875C3.14649 76.9455 0 75.1158 0 72.2283V27.7717C0 24.8842 3.14649 23.0545 5.66366 24.5125V24.4839Z" fill="#50000F"/>
</svg>