<svg width="100" height="100" viewBox="0 0 100 100" fill="none" xmlns="http://www.w3.org/2000/svg">
    <path fill-rule="evenodd" clip-rule="evenodd"
          d="M18.5518 12C19.4874 12 20.3935 12.3279 21.1123 12.9268L30.8877 21.0732C31.6065 21.6721 32.5126 22 33.4482 22H96C98.2091 22 100 23.7909 100 26V83C100 85.2091 98.2091 87 96 87H4C1.79086 87 2.01334e-09 85.2091 0 83V16C0 13.7909 1.79086 12 4 12H18.5518ZM64.1582 40.6846C61.6711 40.6846 59.553 41.0678 57.8037 41.833C56.0544 42.571 54.7419 43.5962 53.8672 44.9082C52.9926 46.1928 52.5557 47.6413 52.5557 49.2539C52.5557 51.0578 53.0063 52.561 53.9082 53.7637C54.8375 54.939 55.9311 55.8547 57.1885 56.5107C58.4458 57.1667 60.0174 57.8362 61.9033 58.5195C63.5433 59.1209 64.719 59.6408 65.4297 60.0781C66.14 60.488 66.495 61.0073 66.4951 61.6357C66.4951 62.0457 66.3172 62.3878 65.9619 62.6611C65.6066 62.907 65.0874 63.0303 64.4043 63.0303C63.5023 63.0303 62.7644 62.7566 62.1904 62.21C61.6438 61.6633 61.2607 60.8981 61.042 59.9141L52.0225 60.8164C52.1592 62.5109 52.7329 64.1101 53.7441 65.6133C54.7827 67.1164 56.2178 68.3324 58.0488 69.2617C59.9075 70.1637 62.0673 70.6152 64.5273 70.6152C66.9052 70.6152 68.9548 70.2183 70.6768 69.4258C72.4261 68.6331 73.7523 67.5806 74.6543 66.2686C75.5561 64.9293 76.0068 63.4534 76.0068 61.8408C76.0068 59.9276 75.5289 58.3696 74.5723 57.167C73.6429 55.9643 72.5493 55.0486 71.292 54.4199C70.0347 53.7913 68.4494 53.1628 66.5361 52.5342C64.9782 52.0149 63.8435 51.5633 63.1328 51.1807C62.4225 50.798 62.0674 50.2926 62.0674 49.6641C62.0674 49.2814 62.2316 48.953 62.5596 48.6797C62.9149 48.4066 63.4067 48.2695 64.0352 48.2695C64.6637 48.2695 65.2239 48.4886 65.7158 48.9258C66.2351 49.363 66.5772 50.0328 66.7412 50.9346L75.7207 50.0332C75.584 48.4479 74.9956 46.9447 73.957 45.5234C72.9457 44.0748 71.5793 42.9127 69.8574 42.0381C68.1628 41.1361 66.2629 40.6846 64.1582 40.6846ZM25.2959 41.2998V70H47.3535V62.415H34.3984V58.9297H45.3857V51.96H34.3984V48.8848H46.9443V41.2998H25.2959Z"
          fill="#50000F"/>
</svg>