<svg width="100" height="94" viewBox="0 0 100 94" fill="none" xmlns="http://www.w3.org/2000/svg">
<path fill-rule="evenodd" clip-rule="evenodd" d="M46.4337 58.7415C48.4203 58.7419 49.4169 59.7344 49.4178 60.725C49.4177 61.7161 48.4211 63.6985 46.4337 64.6899C43.6281 66.0884 41.8143 66.5839 39.268 66.3644C38.875 66.3304 38.4835 66.2558 38.1017 66.1564L37.7211 66.0493C36.5203 65.6821 36.0026 65.4558 35.2457 64.6693L34.9024 64.2924C33.7413 63.2052 33.3459 62.7927 32.7269 61.8228L32.4518 61.3593C32.3654 61.2051 32.3275 61.0318 32.3381 60.8671C32.366 60.4463 32.6287 59.9158 33.0061 59.726C33.295 59.5816 33.7194 59.4796 34.1062 59.3388C35.0351 59.0007 36.5478 58.7415 37.4875 58.7415H46.4337ZM41.0465 60.1318C40.788 60.1318 40.5273 60.1553 40.2751 60.2121C37.7335 60.7865 36.4673 61.8468 36.106 63.2048C36.0595 63.3798 36.1156 63.5658 36.2404 63.6971C36.5136 63.9827 36.7023 64.132 36.8795 64.2388C37.1303 64.3897 37.4489 64.5117 38.1327 64.7208C38.5684 64.8539 38.9867 64.9455 39.388 64.9803C41.5931 65.1704 43.1456 64.7797 45.8133 63.4499C46.5588 63.0779 47.1322 62.5109 47.5153 61.9381C47.923 61.3278 48.026 60.8505 48.0261 60.725C48.0259 60.7113 48.0195 60.61 47.8379 60.4737C47.6376 60.3241 47.2037 60.132 46.4337 60.1318H41.0465Z" fill="#50000F"/>
<path d="M73.8847 54.7609C73.998 54.663 74.1689 54.6745 74.275 54.7803C74.3792 54.8848 74.3892 55.0501 74.308 55.1733C74.2449 55.2684 74.1852 55.3671 74.1294 55.4656C73.8545 55.9619 73.6513 56.488 73.5002 57.0318C73.1796 57.0114 72.8047 56.9794 72.3934 56.9312C72.6809 56.251 73.063 55.6071 73.5798 55.0532C73.6765 54.9518 73.7788 54.8531 73.8847 54.7609Z" fill="#50000F"/>
<path d="M37.8429 46.3392C37.9901 46.368 38.0947 46.4994 38.0914 46.6489C38.0895 46.7365 38.0873 46.8244 38.0856 46.9103C38.0597 48.4735 37.6892 50.5273 37.8429 51.9825C38.0226 53.4271 38.337 54.8096 39.8818 54.6116C39.964 54.6035 40.041 54.5941 40.1187 54.5826C40.2663 54.5606 40.4128 54.6381 40.4682 54.7762C40.5245 54.9165 40.4711 55.079 40.3362 55.1479C40.2465 55.1935 40.1541 55.2345 40.0508 55.2756C39.2955 55.6547 37.9767 55.4903 37.371 54.6387C36.7529 53.8567 36.5633 52.9664 36.4603 52.1374C36.2857 50.4577 36.9123 48.3318 37.4079 46.7941C37.4365 46.7079 37.4665 46.6198 37.4973 46.5328C37.5473 46.3913 37.6952 46.3102 37.8429 46.3392Z" fill="#50000F"/>
<path d="M49.6063 42.719C50.6097 41.9496 52.1015 42.3697 52.3986 42.4886C53.3928 42.8851 54.3624 44.6871 54.7812 45.8592C54.9422 46.3097 55.0337 46.814 55.0337 47.346C55.0333 49.2613 53.8647 50.8147 52.4239 50.8152C50.9831 50.8147 49.8144 49.2612 49.8141 47.346C49.8141 46.3424 50.1347 45.4375 50.6471 44.804C50.7258 44.7068 50.8294 44.2124 50.6607 43.9425C50.6323 43.8974 50.5801 43.8754 50.5267 43.8786C50.1336 43.9036 49.4554 44.0726 49.2179 43.8748C49.032 43.7191 49.1677 43.3573 49.2956 43.1042C49.3708 42.9558 49.4741 42.8205 49.6063 42.719Z" fill="#50000F"/>
<path d="M28.5449 42.5097C29.3898 41.7962 30.6455 42.1867 30.8945 42.2968C31.731 42.6649 32.5461 44.3363 32.8985 45.4234C33.0339 45.8412 33.112 46.3084 33.1121 46.8018C33.112 48.5786 32.1283 50.0206 30.9159 50.0213C29.703 50.0213 28.7198 48.579 28.7197 46.8018C28.7198 45.8707 28.9893 45.0313 29.4207 44.4437C29.4869 44.3524 29.5741 43.8941 29.4323 43.6442C29.4085 43.6028 29.3642 43.5834 29.3197 43.5861C28.989 43.6091 28.4167 43.7659 28.2167 43.5822C28.0607 43.4376 28.1751 43.1025 28.2828 42.8679C28.3462 42.7299 28.4334 42.604 28.5449 42.5097Z" fill="#50000F"/>
<path d="M73.6521 43.6522C75.1142 42.6783 77.0857 43.3151 78.0659 44.3182C78.1188 44.3675 78.1706 44.4191 78.2232 44.4711C78.331 44.578 78.34 44.747 78.2484 44.868C78.1577 44.9878 77.9952 45.0267 77.8581 44.9648C77.8006 44.9388 77.7435 44.9132 77.6872 44.8893C76.4491 44.3397 75.2906 44.2442 74.3745 44.839C73.4259 45.4201 72.6229 46.4995 71.8035 47.5881C71.7634 47.6416 71.7218 47.6952 71.6812 47.7488C71.59 47.8689 71.4261 47.9069 71.2909 47.8398C71.1556 47.7723 71.0869 47.6185 71.1297 47.4738C71.1491 47.4083 71.1691 47.342 71.1899 47.2764C71.6171 45.9578 72.2468 44.5455 73.6521 43.6522Z" fill="#50000F"/>
<path d="M52.2975 34.2608C54.4411 34.2584 56.5789 34.9213 58.323 36.0787C58.445 36.159 58.5639 36.2421 58.6822 36.3265C58.8034 36.4132 58.8364 36.577 58.7618 36.7059C58.6873 36.8342 58.5293 36.888 58.3909 36.8337C58.264 36.7839 58.1379 36.7355 58.0103 36.6885C56.137 35.9974 54.2153 35.6493 52.2936 35.647C50.3725 35.6495 48.425 35.9562 46.5827 36.6614C46.4626 36.7085 46.3396 36.7594 46.2196 36.8124C46.0837 36.8724 45.9222 36.8288 45.839 36.7059C45.7555 36.5821 45.7777 36.4149 45.8953 36.3226C46.0132 36.2302 46.1363 36.1408 46.2565 36.0574C48.0128 34.8644 50.153 34.2606 52.2975 34.2608Z" fill="#50000F"/>
<path d="M27.5395 33.9413C29.4772 33.9721 31.391 34.496 33.0639 35.3952C33.1727 35.4535 33.2812 35.512 33.3882 35.5733C33.5176 35.6476 33.5689 35.8081 33.5106 35.945C33.4517 36.0817 33.2998 36.1561 33.1552 36.1192C33.0417 36.0902 32.9287 36.0618 32.8154 36.0341C31.0398 35.6 29.2776 35.3576 27.5162 35.3274C25.7618 35.3044 23.9789 35.4573 22.2713 35.9702C22.1645 36.0039 22.0583 36.0392 21.9548 36.0767C21.8149 36.1271 21.6562 36.0744 21.58 35.9469C21.5031 35.8178 21.5333 35.6512 21.6557 35.5636C21.7607 35.4886 21.8691 35.4175 21.98 35.3487C23.6411 34.3397 25.6096 33.9133 27.5395 33.9413Z" fill="#50000F"/>
<path fill-rule="evenodd" clip-rule="evenodd" d="M41.4618 2.24661C45.439 -0.726529 50.1221 -0.0659242 54.6433 0.436134C65.527 1.64536 75.8508 7.29226 82.4251 16.0239C82.7207 16.4167 82.9864 16.785 83.2171 17.1135C89.8293 24.4397 90.7302 39.661 90.3063 47.9287C90.2413 49.1933 89.96 50.4328 89.7748 51.6856C89.0983 56.2674 90.993 59.5575 92.1654 60.7277C95.3455 63.8985 97.4685 67.3355 98.1317 68.6575C99.6925 71.7726 98.1888 76.4189 97.1928 78.4617C97.1612 78.5282 97.1677 78.6063 97.2114 78.6656L99.9619 82.3195C100.039 82.4251 99.9941 82.5761 99.8709 82.6202C91.3374 85.538 76.1627 82.0711 68.9623 79.7696C68.958 79.7894 68.9577 79.8118 68.9519 79.8314C68.5078 81.3097 67.5234 82.7668 66.2759 84.1361C65.0218 85.5122 63.4593 86.8449 61.8069 88.0702C58.5024 90.5203 54.7625 92.5972 52.1824 93.8353C51.6747 94.0779 51.0644 94.0565 50.5776 93.7446C46.9569 91.4184 43.7035 87.4942 42.2125 85.3905C41.8485 84.876 41.8481 84.2515 42.0181 83.7592C42.1883 83.2679 42.3193 82.6405 42.4255 81.959C35.7327 84.317 23.2625 80.7665 17.599 78.5708C13.777 76.2866 4.75584 76.8668 0.233818 77.5018C0.0535484 77.5248 -0.0677919 77.309 0.0414928 77.1641C4.50043 71.3924 4.99914 58.6026 4.67592 52.7978C3.88093 43.2843 8.65015 36.9388 10.6401 32.9732C12.6297 29.0076 17.6004 19.0951 21.5758 13.1486C25.5512 7.20279 33.5102 2.24672 41.4618 2.24661ZM64.4706 65.6565C63.0748 67.8364 61.0505 70.339 58.4381 72.5339C54.8024 75.5878 49.9926 78.0697 44.1357 78.2516C44.118 78.9585 44.0751 79.8423 43.9868 80.7438C43.8686 81.9503 43.6654 83.248 43.3313 84.2124C43.2708 84.3889 43.3043 84.5212 43.3499 84.5872C44.7999 86.6332 47.9311 90.3914 51.3324 92.5768C51.3995 92.619 51.4953 92.6272 51.5806 92.5871C54.1023 91.3771 57.7631 89.345 60.9797 86.96C62.5871 85.768 64.07 84.4931 65.244 83.2052C66.3663 81.9734 67.168 80.7545 67.554 79.6069C66.3674 77.1239 64.4872 71.6346 64.4706 65.6565ZM84.216 70.641C84.0665 70.6411 83.9382 70.7493 83.914 70.8964C83.8982 70.9935 83.882 71.0929 83.8665 71.1909C83.5974 72.8478 83.354 74.4923 83.1241 76.1198C82.8796 77.7416 82.7012 79.3764 82.2059 80.9024C82.1759 80.989 82.142 81.0759 82.1087 81.1599C82.0547 81.298 82.1011 81.458 82.2245 81.5409C82.3502 81.6243 82.521 81.6029 82.6153 81.4853C82.6835 81.3997 82.7506 81.3103 82.8139 81.2196C83.8153 79.7271 84.2467 78 84.5014 76.3134C84.7408 74.6174 84.7526 72.9036 84.5531 71.2053C84.5409 71.1028 84.5278 70.9978 84.5138 70.8964C84.4931 70.7492 84.3649 70.642 84.216 70.641ZM88.5795 69.7018C88.4839 69.5867 88.3154 69.5655 88.1907 69.6482C88.0674 69.7314 88.0232 69.8923 88.0852 70.0272C88.135 70.1343 88.1843 70.2454 88.23 70.3506C88.9643 72.0531 89.5609 73.787 90.0457 75.5328C90.5215 77.2792 90.8785 79.0514 90.9184 80.8859C90.9207 81.003 90.9213 81.1227 90.9205 81.2402C90.9202 81.3885 91.0281 81.5185 91.1748 81.543C91.322 81.5658 91.4656 81.4761 91.5057 81.3329C91.5398 81.21 91.5717 81.0847 91.6009 80.9601C92.0444 79.0566 91.9002 77.0351 91.3879 75.1682C90.8682 73.2948 89.9999 71.5373 88.8194 70.0025C88.7429 69.9049 88.6612 69.8005 88.5795 69.7018ZM23.5714 71.6296C23.4216 71.6589 23.3127 71.7908 23.3212 71.9427C23.3251 72.0101 23.3281 72.0796 23.3336 72.1446C23.4645 73.528 23.9516 74.8659 24.7377 76.0292C25.5206 77.1859 26.6556 78.166 27.9783 78.6553C28.0422 78.6791 28.1086 78.7041 28.1727 78.7253C28.3158 78.7714 28.4705 78.7024 28.5388 78.5688C28.6054 78.4354 28.57 78.2696 28.456 78.1733C28.4129 78.1374 28.3665 78.1007 28.3237 78.0641C27.353 77.2308 26.5887 76.273 25.8917 75.2527C25.1999 74.2278 24.5565 73.1372 23.9974 71.9716C23.9738 71.922 23.9502 71.8686 23.9271 71.8171C23.8657 71.6806 23.7186 71.6021 23.5714 71.6296ZM39.6668 11.3031C35.4805 19.05 27.5344 26.0001 23.9767 28.5799L23.9126 28.6252L23.8402 28.654C21.3226 29.7305 20.0176 31.9036 19.4209 34.2832C18.824 36.6658 18.9624 39.1778 19.2761 40.7527C20.8767 46.358 21.282 51.7554 21.2821 53.7885C21.2823 57.8565 22.2769 61.7382 22.9531 63.7101L23.2198 64.4351L23.224 64.4434C25.1322 69.3877 28.8706 72.4969 32.8154 74.3752C36.7693 76.2573 40.8916 76.8837 43.4512 76.8839C49.2097 76.8834 53.9468 74.4936 57.5427 71.4731C61.145 68.4463 63.5709 64.8086 64.6918 62.4146L64.7022 62.4001L67.5291 56.7607L67.6346 56.5918C67.8727 56.2771 68.2635 56.1169 68.6479 56.1634L68.8403 56.2046L69.6695 56.4373C70.6333 56.6807 71.586 56.8364 72.3934 56.9312C72.0228 57.8084 71.8106 58.7531 71.6962 59.669C71.6504 60.0716 71.6751 60.4591 71.752 60.8368C71.8624 61.3431 72.0462 61.8457 72.449 62.3095C72.6524 62.5362 72.9401 62.7624 73.3175 62.8594C73.694 62.9592 74.0974 62.8816 74.3826 62.7359C75.8275 61.7804 75.5932 60.4358 75.5965 59.3992C75.5876 59.2672 75.5739 59.1347 75.5593 59.0037C75.5427 58.8563 75.4143 58.7449 75.2656 58.7442C75.1174 58.7448 74.9928 58.8556 74.9699 59.0016C74.9509 59.1226 74.9292 59.243 74.9078 59.3621C74.751 60.3193 74.363 61.4804 73.8718 61.601C73.6546 61.6469 73.6628 61.6284 73.4768 61.4321C73.3188 61.2315 73.1834 60.8928 73.1149 60.5567C73.0633 60.3062 73.0443 60.0432 73.0611 59.807C73.141 58.8677 73.2526 57.9237 73.5002 57.0318C73.813 57.0517 74.0763 57.0593 74.2709 57.0593C75.7177 57.059 76.8227 56.6474 77.6707 56.0068C78.5259 55.3597 79.1642 54.4467 79.6229 53.391C80.5472 51.2611 80.6958 48.6586 80.537 46.9133C80.2557 43.8301 79.3791 42.0515 78.3656 41.0658C77.3636 40.0927 76.137 39.8041 74.9595 39.8835C74.3496 39.9255 73.8451 40.2604 73.2865 40.831C73.0053 41.1184 72.7369 41.438 72.4345 41.7846C72.141 42.1209 71.8159 42.4803 71.4584 42.8C70.2983 43.8357 68.9001 43.8139 68.0854 43.5436L68.0482 43.5312C66.8821 43.0659 65.9788 42.1301 65.2854 41.0122C64.5911 39.8921 64.0732 38.5346 63.6888 37.1338C62.968 34.5057 62.6899 31.6139 62.6466 29.5706C58.3344 28.6283 54.6818 25.999 51.8681 23.0949C49.0766 20.2133 47.0615 17.0131 45.9825 14.8005C44.7444 14.6677 43.424 14.0297 42.2911 13.3093C41.2908 12.673 40.3683 11.9296 39.6668 11.3031ZM16.6104 55.77C16.4787 55.7045 16.317 55.7527 16.2423 55.8791C16.1117 56.1014 15.9831 56.335 15.866 56.5568C14.4379 59.3159 13.5501 62.3479 13.1858 65.4402C12.8292 68.5321 13.039 71.7379 14.0151 74.6965C14.0962 74.9426 14.1862 75.1866 14.2777 75.4277C14.3304 75.5644 14.4804 75.6372 14.621 75.5946C14.7603 75.551 14.8471 75.408 14.8195 75.265C14.7716 75.0218 14.7239 74.7785 14.6831 74.5338C14.191 71.5627 14.2311 68.5628 14.5693 65.6009C14.9182 62.6432 15.5374 59.6846 16.4967 56.8266C16.5741 56.5995 16.6615 56.3603 16.749 56.1304C16.8008 55.9938 16.7408 55.8361 16.6104 55.77ZM79.2445 58.7462C79.1012 58.7949 79.0126 58.9368 79.0356 59.0861C79.0464 59.1562 79.0555 59.2283 79.0666 59.2982C79.2911 60.7094 79.6267 62.0866 80.0737 63.4238C80.521 64.7613 81.081 66.0655 81.7509 67.329C81.7843 67.3919 81.8204 67.4557 81.8543 67.5185C81.9265 67.6507 82.0833 67.7125 82.2265 67.6647C82.3692 67.6162 82.4575 67.4735 82.4354 67.3249C82.4246 67.255 82.4155 67.1825 82.4044 67.1127C82.1799 65.7013 81.8443 64.3225 81.3973 62.9851C80.9501 61.6478 80.3898 60.3453 79.7201 59.082C79.6866 59.0188 79.6528 58.9535 79.6188 58.8904C79.547 58.7574 79.3881 58.6985 79.2445 58.7462ZM68.6707 27.8363C68.5317 27.783 68.3743 27.8482 68.3067 27.9805C68.2413 28.1125 68.2817 28.2751 68.3998 28.3636C68.4916 28.432 68.5852 28.5046 68.6748 28.5757C69.9428 29.604 71.1127 30.857 71.4873 32.2008C71.5275 32.3497 71.5651 32.5103 71.6073 32.6766C71.7186 33.11 71.8533 33.6172 72.1594 34.1019C72.9827 35.3176 73.9428 36.5875 75.5324 37.1029C75.6811 37.1414 75.839 37.1656 75.9956 37.1709C76.1464 37.1744 76.2621 37.0436 76.2624 36.8928C76.2616 36.7483 76.154 36.625 76.0184 36.5736C75.9362 36.5429 75.8526 36.5058 75.7743 36.4623C74.7225 35.8107 73.9914 34.563 73.3196 33.4099C73.1649 33.1305 73.064 32.7613 72.9577 32.3368C72.9166 32.175 72.8732 32.0028 72.8212 31.826C72.1918 29.8825 70.6101 28.7322 69.0305 27.9887C68.9127 27.9359 68.7913 27.883 68.6707 27.8363ZM37.1293 7.06837C36.8439 7.1899 36.5589 7.32132 36.2793 7.45559C33.0397 9.01847 30.2061 11.3544 27.8005 13.9972C25.397 16.6559 23.3719 19.6314 21.828 22.8518C21.7001 23.1235 21.5685 23.4137 21.4475 23.6963C21.3907 23.8306 21.4493 23.985 21.5799 24.0506C21.7107 24.1148 21.8715 24.0694 21.948 23.9455C22.1039 23.6911 22.2686 23.4282 22.4278 23.1835C24.3469 20.2539 26.5056 17.5068 28.8345 14.9302C31.171 12.367 33.7033 9.97035 36.6164 8.05084C36.8667 7.88666 37.1229 7.72322 37.3795 7.56681C37.5033 7.49057 37.5511 7.33238 37.4871 7.20225C37.4215 7.07166 37.2641 7.01179 37.1293 7.06837ZM57.6978 9.96636C57.5518 9.94011 57.4096 10.0336 57.3711 10.1765C57.3341 10.3187 57.4096 10.4681 57.5468 10.5225C57.7241 10.5926 57.9057 10.6657 58.0824 10.7388C60.4064 11.711 62.6659 12.8041 64.818 14.0302C66.9517 15.2707 69.0501 16.6286 70.5836 18.545C70.6974 18.6902 70.8096 18.8412 70.9145 18.994C70.9978 19.1147 71.1593 19.1621 71.2909 19.097C71.4215 19.0306 71.4812 18.8738 71.4253 18.7386C71.3454 18.5498 71.2573 18.3604 71.1627 18.1784C69.9071 15.8233 67.7472 14.1188 65.5149 12.8252C63.2546 11.5375 60.8041 10.627 58.283 10.0838C58.0897 10.0429 57.8916 10.0016 57.6978 9.96636Z" fill="#50000F"/>
</svg>