<svg width="100" height="100" viewBox="0 0 100 100" fill="none" xmlns="http://www.w3.org/2000/svg">
<path d="M51.915 0C51.9393 0.000383509 52.38 0.150882 52.8896 0.335938C55.9513 1.45928 58.5147 3.17339 60.0107 5.0957C62.3881 8.16465 62.6077 13.4222 60.5781 18.7607C59.6155 21.2737 58.4442 23.4168 56.6465 25.9414C53.8863 29.8323 50.6849 33.2486 45.3965 37.9502C41.5693 41.3548 39.7371 43.2778 38.0322 45.6865C35.1097 49.7976 33.6477 53.4803 33.207 57.7998C33.0563 59.3052 33.1267 60.4983 33.4746 62.4785C34.0313 65.6978 35.4692 68.4655 38.2061 71.6152C38.7744 72.2638 40.8275 74.0245 41.8018 74.6846C44.7476 76.6995 48.25 77.8111 51.7988 77.8574C52.5991 77.869 53.3071 77.8461 53.3535 77.7998C53.4344 77.6971 53.202 49.9123 53.0977 47.9443C53.0745 47.4002 53.0518 46.8909 53.0518 46.8096C53.0518 46.6359 52.0886 46.6241 51.126 46.7979C48.4354 47.2727 45.9654 48.848 44.5273 51.002C43.9707 51.8356 43.6111 52.6924 43.3096 53.8965C43.0892 54.7998 43.0543 55.1365 43.1123 56.6768C43.1703 58.6798 43.321 59.3515 44.0283 60.7988C44.9329 62.6516 46.9159 64.1808 48.957 64.6094L49.6768 64.7715L49.7461 70.5273H49.4102C49.213 70.5273 48.6213 70.3877 48.0762 70.2256C44.1213 69.0212 40.9319 65.6165 39.9229 61.54C39.4358 59.525 39.6212 56.5485 40.375 54.5566C41.558 51.3953 43.5533 49.2534 46.8818 47.5742C48.552 46.7288 51.4745 45.8719 52.6807 45.8604H53.0518L53.0635 42.6406C53.0751 40.8803 53.0979 39.5138 53.1211 39.6064C53.1328 39.7005 53.2137 40.9278 53.2832 42.3281C53.3528 43.7296 53.5387 46.9603 53.6895 49.5078C53.8518 52.0554 54.0261 55.182 54.0957 56.4561C54.2117 58.6564 54.3391 60.7759 54.7334 67.2842C55.0465 72.4376 55.4875 81.6444 55.6963 87.7822C55.8007 90.6658 55.7187 91.3722 55.0576 93.3408C53.921 96.6876 51.7527 98.7725 48.459 99.6758C47.4616 99.9537 47.0902 99.9884 45.6289 100C43.5645 100 42.6943 99.8144 41.001 98.9922C38.6468 97.8457 36.4085 95.611 35.1328 93.1445L34.8311 92.5537L35.4922 91.5811C35.8517 91.0483 36.3155 90.3992 36.5127 90.1328C36.7099 89.8664 37.1856 89.2063 37.5566 88.6621C37.9277 88.1063 38.264 87.6899 38.2988 87.7246C38.3336 87.7594 38.3801 87.9099 38.4033 88.0488C38.4847 88.524 39.2732 90.7359 39.6211 91.4307C40.4445 93.0518 41.57 94.407 42.8457 95.2871C44.5622 96.4796 47.6699 96.6183 49.7109 95.5879C50.5691 95.1479 51.6826 94.0362 52.1582 93.1445C53.2252 91.0716 53.5156 89.2878 53.5156 84.5977V81.4707L51.6719 81.5166C48.9464 81.5745 46.8235 81.2387 44.3184 80.3701C40.7694 79.1425 37.5562 77.0005 34.4248 73.7695C30.3077 69.5426 28 64.1224 28 58.749C28.0001 51.0479 32.8366 43.1032 41.3262 36.8496C43.9818 34.8926 44.4228 34.5569 45.6289 33.5957C49.6417 30.3647 53.3649 26.5202 55.6729 23.2197C57.9228 20.0119 59.222 17.2787 59.9062 14.3604C60.2889 12.7508 60.289 9.94828 59.918 8.62793C59.2337 6.18439 57.6903 4.13468 55.4287 2.65234C54.3505 1.94622 53.2497 1.37873 53.1562 1.48242C53.1099 1.52874 53.0167 2.91825 52.9355 4.57422C52.5529 12.6914 52.5177 13.0746 52.4365 12.1602C52.3901 11.6853 52.286 9.43794 52.1816 7.17969C52.0889 4.92153 51.9733 2.37367 51.9385 1.52832C51.8921 0.694648 51.8802 0 51.915 0Z" fill="#50000F"/>
<path d="M58.3516 65.709C58.5023 65.7669 59.8017 66.5316 64.0117 69.0215C65.5658 69.9479 67.6649 71.164 69.0566 71.9746C70.135 72.5998 70.2047 72.6692 69.915 72.9238C69.6947 73.1323 68.8825 73.816 65.0088 77.0586C63.9652 77.927 63.0719 78.6105 63.0254 78.5527C62.9906 78.5064 62.2834 76.665 61.46 74.4648C60.6365 72.2645 59.7898 69.9942 59.5811 69.4268C59.3607 68.8477 58.9551 67.7703 58.6768 67.0176C58.3292 66.0458 58.2245 65.6634 58.3516 65.709Z" fill="#50000F"/>
<path d="M72.8604 57.915C72.9647 57.9035 73 58.8998 73 62.5361C73 65.0839 72.9763 67.1689 72.9531 67.1689C72.9072 67.165 71.3345 66.6221 69.4395 65.9414C67.5374 65.2697 64.6144 64.2498 62.9443 63.6592C61.2628 63.0686 59.8945 62.5709 59.8945 62.5361C59.896 62.5009 61.0549 62.0728 62.4805 61.5752C65.3682 60.5561 66.8878 60.0116 70.332 58.7842C71.6402 58.3102 72.7754 57.9165 72.8604 57.915Z" fill="#50000F"/>
<path d="M63.3389 46.5547C63.4317 46.5547 64.0351 47.0643 65.3457 48.2803C67.5837 50.3297 67.9431 50.6661 68.6504 51.3145C69.0329 51.6733 69.5434 52.1361 69.7871 52.3447L70.2285 52.7275L69.9033 52.9238C69.7294 53.0281 67.9084 54.0013 65.8672 55.0898C63.826 56.1784 61.9237 57.1855 61.6338 57.3477C59.8725 58.3196 57.9263 59.2918 57.9229 59.2012C57.9229 59.1433 58.4215 57.9273 59.0361 56.5029C59.6508 55.0785 60.5094 53.0748 60.9385 52.0557C61.3676 51.0366 62.0632 49.3806 62.5039 48.373C62.9327 47.3778 63.3152 46.5559 63.3389 46.5547Z" fill="#50000F"/>
<path d="M52.0078 13.9082C52.0424 13.9083 51.9731 13.9784 51.8457 14.0479C51.7297 14.1289 51.4628 14.2907 51.2656 14.4297C51.0685 14.557 50.5698 14.8464 50.1523 15.0664C49.7348 15.298 48.2729 16.1207 46.9043 16.9082C45.5358 17.6956 44.0165 18.552 43.541 18.8184C43.0655 19.0963 42.2071 19.583 41.6504 19.9072C41.0828 20.2311 40.5617 20.4975 40.4912 20.498C40.3174 20.4865 39.3565 18.3254 39.4932 18.2285C39.5512 18.2054 41.0477 17.6725 42.8105 17.0703C44.585 16.4565 47.3685 15.5069 48.9922 14.9395C50.6159 14.372 51.973 13.9198 52.0078 13.9082Z" fill="#50000F"/>
<path d="M47.8672 9.72754C48.3195 9.44966 48.853 9.43849 49.3633 9.68164C49.9548 9.95958 50.1984 10.3764 50.21 11.0713C50.21 11.5922 50.1637 11.7313 49.874 12.0322C48.8187 13.1323 47.1369 12.4957 47.1367 11.002C47.1367 10.504 47.4265 9.9939 47.8672 9.72754Z" fill="#50000F"/>
</svg>