<svg width="100" height="112" viewBox="0 0 100 112" fill="none" xmlns="http://www.w3.org/2000/svg">
<path d="M47.4322 0.150252C46.9944 0.486416 42.5663 6.94077 40.5795 10.1175C39.603 11.6807 38.2728 14.0002 37.633 15.244C36.9932 16.4878 36.4544 17.5299 36.4208 17.5636C36.3871 17.5972 35.1243 16.9249 33.609 16.0844C32.1105 15.244 29.8038 14.017 28.5074 13.3615C26.4196 12.3194 26.0997 12.2017 25.6956 12.3698C25.14 12.5883 25.2073 12.1345 24.3823 20.0176C24.0119 23.5305 23.6752 26.4215 23.6415 26.4719C23.6078 26.5055 21.9915 26.5223 20.0552 26.5223C14.9873 26.4887 12.5459 26.7913 5.54171 28.2872C0.776833 29.3125 0.591626 29.3629 0.406419 29.884C0.28856 30.2538 0.490604 30.8421 1.71971 33.4978C4.27893 39.0277 6.98969 44.0869 8.92594 46.9779C9.38054 47.6335 9.78463 48.289 9.83514 48.4235C9.90249 48.5915 9.43105 48.9445 8.35349 49.5328C5.6764 51.0455 0.137027 54.6425 0.0360049 54.945C-0.0145061 55.1131 -0.0145061 55.3989 0.0528419 55.5669C0.103353 55.7518 2.64574 57.7184 5.71008 59.9707C8.77441 62.2062 11.2326 64.1223 11.1989 64.2232C11.1484 64.324 10.6096 65.198 10.0035 66.1729C8.03358 69.2656 6.09733 73.5349 4.48097 78.2748C3.60545 80.8465 2.32584 85.0822 2.32584 85.3679C2.32584 86.0907 2.6289 86.1747 6.28253 86.5109C13.3541 87.1496 20.1731 87.3177 22.9175 86.9143L23.5405 86.8134V88.7968C23.5405 91.0659 23.8435 97.8396 23.9782 98.4111C24.0119 98.6128 24.2476 98.8649 24.5002 98.9658C24.8706 99.1002 25.2747 98.9658 27.2278 98.1085C31.3192 96.2764 37.4983 93.5703 37.5825 93.5703C37.633 93.5703 38.054 94.3099 38.5086 95.2007C39.6872 97.4866 42.3642 101.504 44.3173 103.907C46.8429 107.017 51.3047 111.858 51.7761 111.959C51.995 112.026 52.2812 112.009 52.4328 111.925C52.7863 111.723 57.265 105.252 59.3696 101.89C60.3462 100.31 61.6763 98.0245 62.2993 96.7807C62.9222 95.5369 63.4778 94.4948 63.5115 94.4612C63.5452 94.4107 64.6396 94.9654 65.9192 95.6882C70.7514 98.3943 73.6642 99.8062 74.1188 99.6885C74.826 99.5204 74.6408 100.563 75.7352 90.3936C76.0214 87.7547 76.2908 85.5528 76.3413 85.4688C76.3918 85.3847 76.4929 85.3679 76.577 85.4183C76.8296 85.5864 83.3455 85.5192 85.1639 85.3343C87.5211 85.099 91.0232 84.4771 95.5187 83.4686C99.206 82.645 99.6437 82.4769 99.6437 81.8382C99.6437 81.4684 96.9835 75.7704 95.1988 72.3079C93.4814 68.9967 92.286 66.9125 91.0232 65.03C90.5686 64.3744 90.1645 63.7189 90.114 63.5845C90.0635 63.4332 90.6528 62.9962 91.9661 62.2566C94.4243 60.8447 99.105 57.8529 99.6269 57.3486C100.469 56.5418 100.603 56.6595 91.9829 50.4068C90.4171 49.2639 89.0196 48.2218 88.8849 48.1041C88.6828 47.9024 88.8007 47.6335 89.6762 46.2888C92.4207 42.0195 94.5253 37.0611 96.8656 29.3797C97.7075 26.6232 97.7243 26.5223 97.4044 26.1189C97.236 25.8668 96.5794 25.766 93.6666 25.497C86.494 24.8583 79.7761 24.6902 77.0485 25.0936L76.4087 25.1945V23.2111C76.4087 20.942 76.1056 14.1683 75.9709 13.5968C75.9372 13.3951 75.7015 13.143 75.449 13.0422C75.0785 12.9077 74.6745 13.0422 72.7214 13.8994C68.63 15.7315 62.4508 18.4376 62.3666 18.4376C62.3161 18.4376 61.8952 17.6812 61.4237 16.7568C60.9523 15.8491 59.8242 13.9666 58.915 12.6051C56.5578 9.02499 55.0762 7.24332 49.3011 0.957046C48.4929 0.0662107 47.8699 -0.202721 47.4322 0.150252ZM51.5404 6.21802C53.9313 8.94095 55.9517 11.5126 57.4502 13.7313C58.6119 15.4625 60.4135 18.7401 60.4135 19.1267C60.4135 19.278 59.5885 19.7822 58.3594 20.3705C53.6282 22.6565 50.7322 25.2113 49.0485 28.5225C48.6108 29.3797 48.5771 29.4134 48.3582 29.1108C45.5801 25.1609 43.3071 22.7237 39.9902 20.2193C38.0876 18.7738 38.054 18.7401 38.2392 18.3031C38.5591 17.5636 40.8657 13.227 41.5224 12.1345C42.2969 10.8235 44.7551 7.14247 46.5735 4.52039L48.0215 2.46979L48.7623 3.17573C49.1664 3.57913 50.4123 4.94059 51.5404 6.21802ZM29.9049 16.2357C31.4875 17.0593 33.4238 18.1182 34.2151 18.6057L35.6294 19.4797L35.2085 20.589C34.434 22.606 33.6595 25.1441 33.3059 26.8921C33.1039 27.8334 32.9187 28.6906 32.885 28.7915C32.8513 28.9259 32.3631 28.8083 31.4707 28.4385C30.713 28.1359 29.0798 27.6485 27.8171 27.3291L25.5272 26.7745L25.6283 26.0685C25.6788 25.6819 25.9482 23.1439 26.2344 20.4378C26.7563 15.513 26.8574 14.7398 26.9752 14.7398C27.0089 14.7398 28.339 15.4121 29.9049 16.2357ZM74.2704 16.1517C74.3377 16.5719 74.4219 18.7401 74.4892 21.0092C74.5734 24.0179 74.5566 25.1441 74.4219 25.2281C74.304 25.2953 73.4117 25.4802 72.4183 25.6651C70.1621 26.0517 67.4682 26.724 66.0202 27.2619C65.4141 27.4972 64.8921 27.6821 64.8585 27.6821C64.8248 27.6821 64.7911 27.5308 64.7911 27.3291C64.7911 26.6904 64.084 23.5641 63.5789 21.9841C63.3095 21.1269 63.1411 20.3537 63.2253 20.2865C63.3937 20.1184 73.8158 15.4457 74.0683 15.4289C74.1357 15.4121 74.2199 15.7483 74.2704 16.1517ZM38.9463 21.7488C40.8994 23.2111 43.9301 26.2198 45.1929 27.9342C46.0347 29.0604 47.449 31.4808 47.449 31.7665C47.449 31.8169 46.9776 31.6993 46.4051 31.5144C45.698 31.2791 44.6709 31.1446 43.3239 31.0942C41.5056 31.0101 41.1015 31.0438 39.4851 31.4472L37.7004 31.901L36.3029 30.9429C35.5284 30.405 34.8549 29.9344 34.7876 29.884C34.4003 29.5646 36.8585 20.6227 37.3131 20.6227C37.3805 20.6227 38.1213 21.1269 38.9463 21.7488ZM61.5416 21.7488C61.9625 22.7741 62.737 25.9845 62.8549 27.2955L62.9727 28.5057L61.5753 29.2117C60.8008 29.5982 59.9421 30.0521 59.6895 30.237C59.2518 30.5563 59.1171 30.5563 57.5007 30.3714C55.0593 30.0857 52.8705 30.4555 50.1093 31.632C49.722 31.7833 49.722 31.5984 50.1598 30.4723C51.0016 28.1864 53.2241 25.6651 55.8675 23.9339C57.1808 23.0935 60.8176 21.1437 61.1375 21.1269C61.2048 21.1269 61.3901 21.4126 61.5416 21.7488ZM92.3196 27.2619C93.9865 27.4132 95.3671 27.5645 95.384 27.5813C95.4177 27.6149 94.9799 29.0604 94.4243 30.8084C92.8416 35.8005 91.4104 39.3974 89.7604 42.4733C88.8512 44.1374 87.2349 46.6754 87.0833 46.6754C87.016 46.6754 86.1405 46.1375 85.1471 45.4988C80.5337 42.4901 77.6546 41.4648 73.8663 41.4648H72.1826L72.8561 40.2378C74.4892 37.2292 75.55 33.3129 76.1561 27.9847L76.2571 27.0266L77.1327 26.9594C79.271 26.7745 89.4237 26.9762 92.3196 27.2619ZM74.304 27.8838C73.8494 31.5312 73.3612 33.8171 72.5362 36.1703C71.93 37.9015 70.6841 40.49 70.1285 41.1959L69.7412 41.6665L69.2193 40.1034C68.4111 37.6494 66.8958 35.2122 65.3804 33.9684L64.7069 33.3969L64.8416 31.6657C64.9258 30.7244 65.0268 29.8672 65.0437 29.7495C65.1784 29.3125 72.031 27.4636 73.9168 27.3628C74.3377 27.3459 74.3546 27.3964 74.304 27.8838ZM23.3047 28.4889C23.4563 28.5729 23.4563 29.0604 23.3384 30.2874C23.1364 32.4052 23.2711 36.3047 23.6078 37.8679C24.0624 40.0025 24.9043 42.0363 25.8303 43.2633C26.0492 43.5491 26.2344 43.8348 26.2344 43.8684C26.2344 43.902 25.6114 44.0029 24.8538 44.0533C20.8297 44.3895 16.7215 45.4652 13.051 47.1292C12.3439 47.4654 11.7209 47.7007 11.6872 47.6671C11.4347 47.3813 8.90911 43.4146 8.1346 42.0699C5.96263 38.2713 2.54472 31.0606 2.83095 30.8757C3.43708 30.5059 10.9632 29.0268 14.2801 28.6234C16.3342 28.3712 22.9848 28.2704 23.3047 28.4889ZM28.5747 29.4638C29.3661 29.6991 30.5952 30.1361 31.2855 30.4219L32.5483 30.9597L32.5146 33.1784L32.4978 35.3971L31.7569 36.372C30.2079 38.3889 29.4503 40.1874 29.0798 42.675L28.8778 44.0533L28.1538 43.2633C26.689 41.6329 25.5946 38.994 25.2073 36.1703C25.0053 34.6743 25.0726 29.5814 25.3084 29.01C25.4262 28.6906 26.2681 28.8083 28.5747 29.4638ZM62.9391 31.3799C62.9391 31.7497 62.8717 32.0522 62.7875 32.0522C62.5686 32.0522 61.5921 31.4808 61.5921 31.3631C61.5921 31.2623 62.5855 30.7412 62.8212 30.7244C62.8885 30.7076 62.9391 31.0101 62.9391 31.3799ZM35.6631 32.8927C35.6631 32.9935 34.535 33.7331 34.4003 33.7331C34.2825 33.7331 34.2993 32.6405 34.4172 32.3212C34.5014 32.1027 34.6024 32.1195 35.0907 32.4388C35.3937 32.6405 35.6631 32.8422 35.6631 32.8927ZM59.4875 32.7918C63.2421 34.0524 66.3906 37.1956 67.384 40.6581C67.7376 41.9187 67.7376 42.3557 67.3672 42.238C65.6835 41.7338 63.461 41.5489 61.6763 41.7842C60.2283 41.9859 57.888 42.7255 57.0966 43.2297C56.642 43.5323 56.6589 43.5659 56.3895 42.0699C56.1537 40.8429 55.3119 38.8428 54.4364 37.5149C54.0828 36.9602 53.1062 35.8341 52.2812 35.0105C51.17 33.9012 50.8501 33.4809 51.0185 33.3801C51.2879 33.212 53.5945 32.4388 54.1838 32.3212C54.4195 32.2876 55.3961 32.2708 56.3726 32.2876C57.7364 32.338 58.4436 32.4556 59.4875 32.7918ZM45.8327 33.3969L46.9607 33.7499L46.1694 34.6239C44.0648 36.9434 42.5831 40.2547 42.5663 42.6414C42.5663 43.8348 42.4653 43.902 41.152 43.4986C37.9361 42.507 34.333 42.7255 31.2181 44.0701C30.9151 44.2046 30.8982 44.1542 31.0161 43.1121C31.5044 38.2209 35.6968 34.0188 41.0173 33.0607C42.1959 32.8422 44.553 33.0103 45.8327 33.3969ZM50.2608 35.8005C51.5741 36.9098 52.8705 38.5066 53.5272 39.8176C54.1333 41.0278 54.6889 43.0784 54.6889 44.1205C54.6889 44.8265 54.6047 44.961 53.5272 46.0871C52.2981 47.3981 51.3889 48.642 50.4292 50.3564L49.8399 51.4321L49.3348 50.4404C48.6444 49.079 47.1796 47.2469 46.001 46.272C44.5025 45.0282 44.4184 44.9105 44.4184 43.902C44.4184 41.1791 45.6306 38.1872 47.55 36.1198C48.1562 35.4475 48.7791 34.9096 48.9307 34.9096C49.099 34.9096 49.6883 35.313 50.2608 35.8005ZM76.5434 43.5827C78.2776 43.9357 80.0455 44.6416 81.8807 45.6837C83.5644 46.6418 85.8206 48.2049 85.8374 48.3898C85.8542 48.8268 80.8031 53.3987 80.3149 53.3987C80.2138 53.3987 79.7592 53.1466 79.2878 52.8272C78.8164 52.5078 77.9745 52.0036 77.4357 51.7011C76.5939 51.2304 76.4087 51.0623 76.2403 50.4741C75.5331 48.1041 73.5969 45.6501 71.0377 43.8684C70.8861 43.7676 71.2229 43.5995 71.8122 43.4818C72.9402 43.2633 75.2132 43.3138 76.5434 43.5827ZM65.6667 43.8852C66.3401 44.0197 67.1146 44.2046 67.384 44.3054C67.8555 44.4903 67.8555 44.5071 67.7544 45.5492C67.5861 46.9443 66.7611 49.3647 66.0371 50.5749C65.2457 51.8523 63.9998 53.2138 62.9054 53.9534L62.013 54.5584L60.8849 54.2391C59.4706 53.8525 57.1976 53.5668 55.4129 53.5668C54.6384 53.5668 54.0154 53.5331 54.0154 53.4995C54.0154 53.4659 54.2848 52.9953 54.6047 52.4574C55.4298 51.096 56.1369 49.163 56.4736 47.415C56.7936 45.6837 56.9114 45.5492 58.6625 44.7088C60.7839 43.7003 63.1916 43.4146 65.6667 43.8852ZM40.63 45.398C42.5494 46.0535 42.6505 46.1375 42.9704 47.4654C43.3408 48.8941 44.1321 50.7598 45.0918 52.3902C45.4959 53.0793 45.799 53.6844 45.7485 53.718C45.7148 53.7517 45.2434 53.7685 44.7214 53.7517C42.9872 53.6844 40.2596 54.2055 38.5422 54.945L37.8014 55.2644L36.909 54.8106C35.8146 54.2559 34.5519 53.2306 33.6427 52.1381C32.5314 50.8102 31.1171 47.6167 31.1171 46.4401C31.1171 46.1543 32.9018 45.4316 34.4845 45.0786C36.2019 44.692 38.9463 44.8433 40.63 45.398ZM70.8861 46.2216C72.755 47.7343 74.2704 50.1211 74.7923 52.3902C75.1796 53.9702 75.1459 56.7435 74.725 58.3403C74.1862 60.4749 72.7719 62.7945 71.2565 64.0551L70.7346 64.4753L70.2632 63.0634C69.3876 60.3741 67.6029 57.9033 65.3468 56.3065L64.2692 55.5333L65.4478 54.3568C66.8284 52.9953 67.6197 51.8691 68.4279 50.1043C69.0172 48.8268 69.6739 46.625 69.6739 45.8854C69.6739 45.3475 69.8759 45.398 70.8861 46.2216ZM26.9752 45.9358L27.7497 46.0535L26.7732 47.0788C25.0221 48.9109 23.9782 50.7766 23.3553 53.197C23.1869 53.9029 23.0017 54.4912 22.9848 54.5248C22.9512 54.5585 22.2103 54.9282 21.3517 55.3484C19.9205 56.0376 19.7353 56.088 19.3649 55.8863C18.7756 55.5669 15.0041 51.8355 13.876 50.4572L12.9163 49.2807L14.1454 48.726C17.1761 47.3477 21.0654 46.272 23.9951 46.0199C26.1334 45.8182 26.1165 45.8182 26.9752 45.9358ZM29.686 48.9277C30.5615 51.6338 32.3462 54.0878 34.6024 55.7014L35.6799 56.4746L34.5182 57.6175C33.1881 58.9286 32.3294 60.122 31.538 61.87C30.9151 63.2147 30.2753 65.3157 30.2753 66.0385C30.2753 66.3074 30.2079 66.5091 30.1069 66.5091C29.8038 66.5091 28.1706 65.0468 27.3625 64.0551C25.6619 61.9709 24.8874 59.685 24.8874 56.7435C24.8874 53.2306 26.0829 50.39 28.5074 48.1377C28.8778 47.8015 29.1809 47.5158 29.1977 47.5158C29.2145 47.5158 29.4166 48.1545 29.686 48.9277ZM53.8471 49.5664C53.2915 51.0623 51.2879 54.0878 51.0353 53.8357C50.9006 53.7012 52.4159 50.8102 53.3083 49.4656C53.7461 48.8437 54.1165 48.3898 54.1333 48.4739C54.167 48.5747 54.0491 49.0622 53.8471 49.5664ZM46.6913 49.9362C47.7352 51.4153 48.998 54.071 48.6613 54.071C48.3414 54.071 45.4286 49.163 45.4286 48.6251C45.4286 48.3562 45.9505 48.9109 46.6913 49.9362ZM88.767 50.4068C89.4237 50.8774 91.6125 52.491 93.6498 53.9534C97.236 56.5754 97.3202 56.6427 96.9667 56.9116C95.8722 57.7352 89.1206 61.8028 88.8512 61.8028C88.7839 61.8028 88.1609 61.08 87.4369 60.206C86.7298 59.332 85.2144 57.7184 84.0695 56.6259L81.9986 54.6425L83.2613 53.6508C83.9685 53.0961 85.1807 51.9532 85.9721 51.096C86.7803 50.2387 87.4537 49.5328 87.5043 49.5328C87.5379 49.5328 88.1104 49.9194 88.767 50.4068ZM12.0913 51.3313C12.5796 51.97 14.0949 53.5836 15.4587 54.9282L17.9337 57.3822L16.7552 58.2899C16.1153 58.7941 14.8862 59.9539 14.0107 60.8615C12.849 62.1053 12.3944 62.4919 12.226 62.3575C12.1081 62.2734 9.90249 60.6598 7.30959 58.7773C2.7636 55.4661 2.6289 55.3484 2.98248 55.0963C4.09372 54.2559 10.8285 50.2051 11.0979 50.2051C11.1653 50.2051 11.6199 50.7094 12.0913 51.3313ZM77.8566 54.0878C78.1765 54.2727 78.4291 54.4576 78.4291 54.508C78.4291 54.5416 78.126 54.7265 77.7725 54.8946L77.1158 55.2308L77.0485 54.4912C77.0148 54.071 77.0653 53.7348 77.1495 53.7348C77.2337 53.7348 77.5536 53.8861 77.8566 54.0878ZM58.3089 55.7518L58.814 55.8695L58.1405 56.0208C57.265 56.2225 53.4093 56.2057 52.7527 56.004L52.2476 55.8527L52.921 55.7518C53.8302 55.6006 57.6691 55.6006 58.3089 55.7518ZM47.2638 56.0376C47.6342 56.1888 47.5669 56.2225 46.7587 56.3065C45.5969 56.4578 42.2969 56.4242 41.6402 56.2561L41.1351 56.1384L41.8086 56.0208C42.179 55.9535 42.5663 55.8695 42.6505 55.8191C42.9704 55.7014 46.8597 55.8863 47.2638 56.0376ZM81.948 57.2814C83.3792 58.542 85.9047 61.2313 86.6792 62.307L87.016 62.7777L85.5343 63.3996C83.497 64.2904 81.0388 65.0972 79.2036 65.4838C77.2168 65.9208 74.102 66.2065 73.0244 66.0721L72.1994 65.9544L73.2938 64.8115C74.6745 63.3491 75.752 61.5171 76.3245 59.6513C76.5602 58.8445 76.8128 58.0209 76.8801 57.8192C76.9643 57.5503 77.4526 57.2141 78.5133 56.6931C79.3551 56.2729 80.1128 55.9367 80.2138 55.9367C80.3317 55.9199 81.1062 56.525 81.948 57.2814ZM22.8333 58.2394C22.6649 58.3067 21.52 57.6175 21.52 57.4663C21.52 57.399 21.8063 57.231 22.1598 57.0797L22.7828 56.8276L22.867 57.4999C22.9175 57.8865 22.9007 58.2058 22.8333 58.2394ZM63.6294 57.5335C65.9024 58.895 67.8555 61.5843 68.5963 64.3576C68.9499 65.7359 68.9499 65.7527 67.7544 66.2234C65.0268 67.3159 61.8952 67.4504 59.3191 66.5931C57.3997 65.9544 57.2987 65.8704 56.9619 64.5257C56.6252 63.097 55.8507 61.2985 54.8573 59.6177C54.4532 58.9286 54.1501 58.3403 54.2007 58.3067C54.2343 58.2899 55.0593 58.2394 56.0359 58.2058C57.8711 58.1218 59.9589 57.7016 61.2554 57.1301C62.1309 56.7267 62.3666 56.7771 63.6294 57.5335ZM39.3336 57.8361C40.6805 58.189 42.8862 58.4411 44.5362 58.4411C45.3107 58.4411 45.9337 58.4748 45.9337 58.5084C45.9337 58.542 45.6643 59.0126 45.3444 59.5505C44.5194 60.912 43.8122 62.8449 43.4755 64.593C43.1556 66.3242 43.0377 66.4587 41.3035 67.2991C39.8892 67.9546 38.1887 68.358 36.6397 68.358C35.4947 68.358 33.4238 68.0218 32.5651 67.7025C32.0937 67.5176 32.0937 67.5008 32.1947 66.4587C32.4641 64.1559 33.6595 61.433 35.1917 59.7018C36.084 58.6933 37.8351 57.3822 38.1381 57.4999C38.2728 57.5503 38.7948 57.7016 39.3336 57.8361ZM52.3317 59.3152C53.3083 60.7775 54.6047 63.2819 54.47 63.4332C54.3185 63.5677 52.8705 61.6179 52.2476 60.4245C51.5741 59.1639 51.1026 57.9369 51.2879 57.9369C51.3552 57.9369 51.8266 58.5588 52.3317 59.3152ZM48.2909 59.6513C47.4827 61.2817 45.8832 63.7694 45.8158 63.534C45.7148 63.2483 46.4051 61.6011 47.0449 60.5422C47.7184 59.416 48.796 58.0546 48.9138 58.1722C48.9475 58.2058 48.6781 58.8782 48.2909 59.6513ZM20.796 59.2479C21.3348 59.6009 22.1598 60.122 22.6481 60.3741C23.3553 60.7775 23.5405 60.9792 23.7088 61.5339C24.2981 63.534 25.8808 65.7695 27.6487 67.131C28.339 67.6689 28.9115 68.1563 28.9115 68.2067C28.9451 68.442 28.2717 68.5765 26.6385 68.6437C23.7762 68.795 21.1328 68.0723 18.0684 66.3242C16.5531 65.4502 14.1286 63.8198 14.1117 63.6517C14.0949 63.1979 19.0787 58.6092 19.6006 58.6092C19.7185 58.6092 20.2572 58.895 20.796 59.2479ZM50.6312 61.6179C51.3047 62.9289 52.8874 64.9123 54.0323 65.82C55.4298 66.9629 55.5308 67.1142 55.5308 68.1059C55.5308 70.8288 54.3185 73.8207 52.3991 75.8881C51.793 76.5604 51.17 77.0983 51.0016 77.0983C50.648 77.0983 48.7791 75.4679 47.8531 74.3585C46.3714 72.5264 45.2602 69.7867 45.2602 67.8874C45.2602 67.1814 45.3444 67.047 46.4556 65.8872C47.6174 64.6602 49.1327 62.5255 49.7388 61.2481C49.9072 60.912 50.0587 60.6262 50.0924 60.6262C50.1093 60.6262 50.3618 61.0632 50.6312 61.6179ZM89.4068 66.0553C91.8145 69.7363 93.6498 73.1483 96.209 78.6614C96.9667 80.275 97.2529 81.0482 97.1182 81.1322C96.8488 81.3003 92.7574 82.208 90.0466 82.7122C86.4604 83.3677 83.4802 83.6535 80.197 83.6535C76.6949 83.6535 76.3413 83.5862 76.476 83.082C76.5434 82.8971 76.6275 81.5188 76.6781 80.0397C76.8801 75.2662 76.1393 71.7701 74.3714 69.1312C74.001 68.5933 73.7316 68.1227 73.7484 68.1059C73.7821 68.0891 74.7081 67.9882 75.8194 67.8706C78.1092 67.652 79.6582 67.3495 81.746 66.7444C83.5476 66.2234 86.191 65.2485 87.1844 64.7274C87.6053 64.5089 88.0262 64.3408 88.1104 64.3408C88.2114 64.324 88.7839 65.0972 89.4068 66.0553ZM15.0378 66.6604C17.2771 68.1227 20.1394 69.5514 21.8568 70.0388C22.7491 70.3077 23.7762 70.4254 25.3925 70.4926L27.6824 70.5767L26.891 72.2071C25.3757 75.283 24.4665 78.5438 23.9614 82.729C23.8099 83.9224 23.6415 84.9477 23.6078 84.9981C23.5573 85.0486 20.695 85.0822 17.2603 85.0822C12.4617 85.0822 10.2561 85.0149 7.79786 84.7628C6.04682 84.5947 4.582 84.4435 4.56516 84.4267C4.48097 84.3426 6.46774 78.2076 7.19173 76.2579C9.01013 71.4171 12.3607 65.1476 13.0005 65.3829C13.1015 65.4334 14.0276 66.0048 15.0378 66.6604ZM68.933 68.9295C68.6468 71.7701 66.8284 74.8123 64.3029 76.6613C63.2084 77.468 61.3564 78.3589 60.0768 78.7119C58.4267 79.1489 55.7833 79.1321 54.2175 78.6446L52.9884 78.258L53.8471 77.3C55.8002 75.1317 57.1471 72.2071 57.3323 69.7867C57.3828 69.1144 57.4839 68.4588 57.5512 68.358C57.6354 68.2067 57.9721 68.2571 58.7972 68.5093C61.6258 69.3833 64.8921 69.3161 67.6029 68.358C68.3269 68.1059 68.9499 67.8874 68.9835 67.8706C69.0172 67.8537 69.0004 68.3412 68.933 68.9295ZM73.0244 70.4254C73.7147 71.6188 74.4893 74.056 74.7081 75.636C74.9775 77.5857 74.8597 82.8971 74.5566 83.2165C74.304 83.4686 69.4718 82.0567 67.9565 81.2835L67.3504 80.981L67.4514 76.6108L68.3774 75.3838C68.8825 74.7115 69.4381 73.9047 69.5897 73.5854C70.1285 72.5264 70.6672 70.728 70.8693 69.3329L71.0713 67.9546L71.7953 68.7446C72.1994 69.1816 72.7382 69.938 73.0244 70.4254ZM43.4755 69.5346C43.8122 72.0558 45.6475 75.1989 48.072 77.4176C49.3684 78.611 49.4021 78.5438 47.3648 79.2329C46.1862 79.6363 45.7653 79.6867 43.9132 79.6867C42.078 79.6867 41.6402 79.6195 40.4617 79.2161C38.4917 78.5438 36.9427 77.5689 35.3937 75.9889C34.3667 74.9804 33.8447 74.2745 33.3564 73.2996C32.7671 72.123 32.1273 69.9716 32.3125 69.8035C32.3462 69.7531 32.8345 69.8371 33.3733 69.9548C36.1682 70.6103 38.9968 70.3918 41.5729 69.3161C42.3474 68.9967 43.0714 68.7278 43.1724 68.711C43.2734 68.711 43.4081 69.0639 43.4755 69.5346ZM30.4436 70.8792C30.4436 71.4843 31.3192 73.6526 32.1105 74.9804C32.5314 75.72 33.4238 76.863 34.0636 77.5185L35.2422 78.7119L35.1075 80.3759C35.0233 81.3003 34.9391 82.1407 34.9054 82.2416C34.7876 82.6618 29.0125 84.2586 26.4533 84.5947L25.5609 84.7124L25.6619 83.8888C25.9145 81.7205 26.6385 78.2412 27.1773 76.5436C28.3895 72.8122 30.4436 69.2488 30.4436 70.8792ZM65.633 78.9976C65.633 79.401 65.5825 79.7708 65.532 79.838C65.4309 79.9389 64.286 79.2833 64.286 79.1153C64.286 79.0144 65.3299 78.2917 65.5151 78.2917C65.5825 78.2748 65.633 78.5942 65.633 78.9976ZM37.8351 80.2414C38.1213 80.4095 38.357 80.5776 38.357 80.628C38.357 80.7457 37.3636 81.3003 37.1616 81.3003C37.0774 81.3003 37.0101 80.9978 37.0101 80.628C37.0101 79.8716 37.0943 79.838 37.8351 80.2414ZM56.642 80.9305C58.4436 80.9978 58.8813 80.9474 60.464 80.5608L62.2487 80.1069L63.6462 81.065C64.4207 81.6029 65.0942 82.0735 65.1615 82.1239C65.3804 82.3088 64.4881 86.2419 63.6967 88.6623C62.7202 91.6206 62.7707 91.5365 62.0804 91.0323C59.74 89.4187 57.0293 86.9143 55.4129 84.9141C54.369 83.6199 52.5001 80.6784 52.5001 80.3255C52.5001 80.2414 52.9716 80.3086 53.5608 80.4935C54.2848 80.7288 55.2445 80.8633 56.642 80.9305ZM50.0756 80.7457C50.0082 81.0146 49.6547 81.8382 49.2842 82.5946C48.3919 84.4267 46.4725 86.4773 44.2668 87.9396C42.4147 89.1498 38.9295 90.9482 38.6938 90.797C38.3234 90.5617 37.2795 86.5781 37.0606 84.4939L36.9596 83.519L38.3739 82.8131C39.1484 82.4097 40.0071 81.9558 40.2596 81.771C40.6974 81.4516 40.8321 81.4516 42.3979 81.6365C44.8224 81.939 46.9776 81.6029 49.3011 80.5608C50.1093 80.2078 50.1934 80.2246 50.0756 80.7457ZM53.1062 84.9981C54.7058 87.1832 57.4165 89.8725 59.9757 91.7886L61.9288 93.251L60.986 95.1335C59.016 99.0498 57.1808 102.025 53.3588 107.504L51.9108 109.572L50.3281 107.925C47.1123 104.529 43.4586 99.907 41.6739 96.9992C40.6132 95.2679 39.5356 93.1669 39.5356 92.8476C39.5356 92.7299 40.4448 92.192 41.5729 91.6542C46.2704 89.3851 49.2169 86.7966 50.9006 83.4854C51.3384 82.6282 51.372 82.5946 51.5909 82.8971C51.7256 83.082 52.3991 84.0233 53.1062 84.9981ZM72.1321 84.6788L74.4219 85.2334L74.304 86.1579C74.2367 86.679 73.9336 89.3515 73.6474 92.0912C73.3443 94.8477 73.0581 97.1337 73.0076 97.2009C72.8729 97.3186 68.9499 95.2848 66.2728 93.7048L64.286 92.5282L64.5554 91.9231C65.1279 90.6457 66.2896 86.8302 66.6432 85.1494C66.8452 84.1913 67.0304 83.3173 67.0641 83.2165C67.0978 83.082 67.5861 83.1997 68.4784 83.5694C69.2361 83.872 70.8693 84.3594 72.1321 84.6788ZM35.158 84.6788C35.158 85.3343 35.8483 88.4102 36.3366 89.9566C36.8922 91.6542 36.9259 91.8895 36.6565 91.8895C36.5723 91.8895 34.7034 92.6963 32.5146 93.6712C27.1099 96.0916 25.864 96.6126 25.7629 96.5118C25.4767 96.2428 25.2915 86.9311 25.5609 86.763C25.6451 86.7126 26.5375 86.5277 27.5308 86.3428C29.8207 85.9562 32.3967 85.3007 33.811 84.7628C35.158 84.2418 35.158 84.2418 35.158 84.6788Z" fill="#50000F"/>
</svg>