<svg width="100" height="100" viewBox="0 0 100 100" fill="none" xmlns="http://www.w3.org/2000/svg">
<path d="M0 50V100H100V0H0V50ZM80.5812 46.0125C83.1219 46.6469 85.0563 47.7875 86.8469 49.625C87.7594 50.6 89.125 52.3906 89.2406 52.8313C89.2719 52.9625 84.9281 55.875 82.2906 57.5031C82.1938 57.5687 81.8031 57.1625 81.3781 56.525C80.0938 54.6531 78.7406 53.8406 76.675 53.6937C73.6469 53.4969 71.6938 55.0781 71.7094 57.7313C71.6938 58.3813 71.8406 59.0344 72.1313 59.6031C72.8 60.9875 74.0531 61.8156 77.925 63.4938C85.0875 66.5688 88.1469 68.6031 90.05 71.4844C92.1812 74.7063 92.6531 79.85 91.2219 83.6906C89.6281 87.8406 85.6875 90.6719 80.1531 91.6C78.4438 91.9094 74.375 91.8594 72.5344 91.5187C68.5156 90.8031 64.7062 88.8156 62.3625 86.2125C61.4344 85.2031 59.6437 82.55 59.7594 82.3719C59.8094 82.3062 60.2156 82.0469 60.6719 81.7844C61.1281 81.5219 62.8031 80.5469 64.3844 79.6344L67.2656 77.9594L67.8688 78.8531C68.7156 80.1375 70.5531 81.8969 71.6625 82.4812C74.8531 84.175 79.2313 83.9313 81.3969 81.9938C82.275 81.2625 82.7656 80.1375 82.7 79C82.7 77.8438 82.5531 77.325 81.95 76.4594C81.1688 75.3531 79.5906 74.4094 75.0812 72.4563C69.9219 70.225 67.6906 68.8594 65.675 66.6625C64.4063 65.2125 63.4625 63.5062 62.925 61.6656C62.55 60.25 62.4531 56.7 62.7469 55.2844C63.8063 50.2875 67.5813 46.8219 73 45.7969C74.7594 45.4562 78.8594 45.5844 80.5844 46.0094L80.5812 46.0125ZM57.1125 50.1969L57.1437 54.2813H44.1219V91.2781H34.9094V54.2813H21.9063V50.2781C21.9063 48.0469 21.9563 46.1937 22.0188 46.1437C22.0688 46.0781 29.9781 46.0469 39.5813 46.0625L57.0625 46.1125L57.1125 50.1969Z" fill="#50000F"/>
</svg>
