<svg width="100" height="100" viewBox="0 0 100 100" fill="none" xmlns="http://www.w3.org/2000/svg">
<path fill-rule="evenodd" clip-rule="evenodd" d="M93.875 26.0099C94.09 27.6048 94.21 29.3089 94.21 31.1489C94.21 39.9386 93.395 40.4339 75.135 93.2171C90 84.5474 100 68.4427 100 49.9983C100 41.3036 97.78 33.1296 93.875 26.0099ZM50.88 54.3732L35.875 97.9606C46 100.94 56.73 100.637 66.605 97.1671C66.47 96.9521 66.35 96.7212 66.25 96.4762L50.88 54.3732ZM83.755 47.474C83.755 41.2942 81.535 37.0128 79.63 33.6829C77.1 29.5631 74.72 26.0796 74.72 21.9597C74.72 17.3649 78.21 13.0855 83.12 13.0855C83.34 13.0855 83.55 13.1146 83.765 13.1246C74.87 4.97483 63.02 0 50 0C32.535 0 17.165 8.95888 8.22502 22.5334C11.41 22.6334 15.685 22.6746 24.77 21.9646C27.465 21.8046 27.78 25.7632 25.09 26.0782C25.09 26.0782 22.38 26.3992 19.365 26.5592L37.575 80.7175L48.515 47.8988L40.725 26.5543C38.035 26.3993 35.485 26.0782 35.485 26.0782C32.79 25.9182 33.105 21.7997 35.8 21.9597C46.135 22.7547 51.425 22.8147 62.295 21.9597C64.99 21.7997 65.31 25.7582 62.615 26.0782C62.615 26.0782 59.9 26.3993 56.89 26.5543L74.96 80.3025C82.095 56.4633 83.755 52.4738 83.755 47.474ZM0 49.9983C0 69.7877 11.5 86.8921 28.18 94.9968L4.32999 29.6499C1.55499 35.8697 0 42.7486 0 49.9983Z" fill="#50000F"/>
</svg>
